/* XPM */
static char *_2651831efb240c3dd478995092262c5qIypMY3YIBPkiD3U[] = {
/* columns rows colors chars-per-pixel */
"16 16 3 1 ",
"  c #EEBA6A",
". c #FBC565",
"X c #FFDC8C",
/* pixels */
"XXXXXXXXXXXXXXXX",
"XXX.XXXXXXXXXXX.",
"XXXXXXXXXXX XXXX",
"XXXXX.XXXXXXXXXX",
"X XXXXXXXXXXXXXX",
"XXXXXXXXXXXXXXXX",
"XXXXXXXXX.XXXXXX",
".XXXXXXXXXXXXXXX",
"XXXXXXXXXXXXXX.X",
"XXXXXXXXXXXXXXXX",
"XXXX.XXXXXXXXXXX",
"XXXXXXXXXXXXXXXX",
"XXXXXXXX XXXXXXX",
"XXXXXXXXXXXX.XXX",
"XXXXXX.XXXXXXXXX",
"XX XXXXXXXXXXXXX"
};
