/* XPM */
static char *result[] = {
/* columns rows colors chars-per-pixel */
"16 32 9 1 ",
"  c #35001E",
". c #3D210B",
"X c #4A290D",
"o c #723A01",
"O c #AF6710",
"+ c #874D27",
"@ c #CE7829",
"# c #FFB032",
"$ c None",
/* pixels */
"$$$$$$XXX$$$$$$$",
"$$$$$X#@#X$$$$$$",
"$$$$$X@#@X$$$$$$",
"$XXXXoooooXXXXX$",
".#@@@@@@@@@@@@#X",
".@############@X",
".+OOOOOOOOOOOOOX",
".o++++++++++++OX",
".o++++++++++++OX",
".o++++++++++++OX",
".o++++++++++++OX",
".o++++++++++++OX",
".o++++++++++++OX",
".o++++++++++++OX",
".o++++++++++++OX",
".o++++++++++++OX",
".o++++++++++++OX",
".o++++++++++++OX",
".o++++++++++++OX",
".o++++++++++++OX",
".o++++++++++++OX",
".ooooooooooooo+X",
"$.............X$",
"$$$$$.XXX.$$$$$$",
"$$$$$.o++.$$$$$$",
"$$$$$.o+@X$$$$$$",
"$$$$$.oO@X$$$$$$",
"$$$$$.oO@X$$$$$$",
"$$$$ .o++X$$$$$$",
"$$$$  .XX $$$$$$",
"$$$$$    $$$$$$$",
"$$$$$$$$$$$$$$$$"
};
