/* XPM */
static char *result[] = {
/* columns rows colors chars-per-pixel */
"96 31 38 1 ",
"  c #23150C",
". c #2D231E",
"X c #341528",
"o c #361528",
"O c #332620",
"+ c #372D28",
"@ c #382E29",
"# c #392F2A",
"$ c #3B2F2B",
"% c #3C322D",
"& c #3F3530",
"* c #47372B",
"= c #433934",
"- c #443A35",
"; c #453A37",
": c #534944",
"> c #5C554E",
", c #655B56",
"< c #665C57",
"1 c #7C726D",
"2 c gray48",
"3 c #915200",
"4 c #A86900",
"5 c #827873",
"6 c #807A73",
"7 c #887E79",
"8 c #D08405",
"9 c #F1B435",
"0 c #9B918C",
"q c #A5968E",
"w c #B1A8A2",
"e c #CFBFB3",
"r c #FFE987",
"t c #CBC1BC",
"y c #E7D7C7",
"u c #E4DAD5",
"i c #FFFEF2",
"p c None",
/* pixels */
"pppppppppppppppppppppppppppppppppppppppppppppppppppppppppppppppppppppppppppppppp;;O4O;;;;;;O4O;;",
"pppppppppppppppppppppppppppppppppppppppppppppppppppppppppppppppppppppppppppppppp;>O9;>>>>>>;9O>;",
"pppppppppppppppppppppppppppppppppppppppppppppppppppppppppppppppppppppppppppppppp;>;4;>>>>>>;4;>;",
"pppppppppppppppppppppppppppppppppppppppppppppppppppppppppppppppp;;O4O;;;;;;O4O;;;>;4O>;OO;>O4;>;",
"pppppppppppppppppppppppppppppppppppppppppppppppp;;O3O;;;;;;O3O;;;6;r;666666;rO6;;;O3O;O88O;O3O;;",
"pppppppppppppppppppppppppppppppp;;O3O;;;;;;O3O;;;6;r;666666;r;6;;>;9;>>>>>>;9;>;;OOOOOOOOOOOOOO;",
"pppppppppppppppppppppppppppppppp;6O9;wewewq;9O6;;w;r;wwwwww;r;w;;>;4;>>>>>>;4;>;;OOOOOOOOOOOOOO;",
"pppppppppppppppppppppppppppppppp;w;r;wweweq;r;w;;>;9;>>>>>>;9;>;;>O3O>;OO;>;3O>;;;;;;;;;;;;;;;;;",
";;*3*;;;;;;*3*;;;;*3*;;;;;;*3*;;;e;r;eeeeeq;r;e;;>O4O>>>>>>;4O>;;;OOO;O88O;OOO;;pOOO2OOOOOO2OOOp",
"O6*9*wewewq*9*6OO6*9*wewewq*9*6O;e;r;eyyyeq;r;e;;>O3O>;OO;>;3O>;#,,,O,,,,,,O,,,#Oeee2eeeeee2eeeO",
"Ow;r>eweweq>r;wOOw;r>eweweq>r;wO;yOrOyyyyyeOrOy;;;OOO;O88O;OOO;;@2============2@Oe;;;;;;;;;;;;eO",
"Oe>r>weeeeq>r>eOOe>r>weeeeq>r>eO;>O9O>>>>>>O9O>;#>............>#@u@@=@@@=@@@=@u@OiOO;OOO;OOO;OiO",
"Oe>r>eeeeeq>r>eOOe>r>eeeeeq>r>eO;>O4O>>>>>>O4O>;#0############0#@u@@@@@@@@@@@@u@OiOOOOOOOOOOOOiO",
"Oe>r>eeeeeq>r>eOOe>r>eeeeeq>r>eO;>O3O>;OO;>O3O>;#t#-#-#-#-#-#-t#@u@=@=@=@=@=@=u@OiO;O;O;O;O;O;iO",
"Oe>r>eeyeeq>r>eOOe>r>eeyeeq>r>eO;;OOO;O88O;OOO;;#t-#-#-#-#-#-#t#@u=@=@=@=@=@=@u@Oi;O;O;O;O;O;OiO",
"Oe;9;eyyyeq;9;eOOe;9;eyyyeq;9;eO.1............1.#t------------t#@u============u@Oi;;;;;;;;;;;;iO",
"Oy;8;yyyyye;8;yOOy;8;yyyyye;8;yO.1.++++++++++.1.#t-<<<<<<<<<<-t#@u=,,,,,,,,,,=u@Oi;>>>>>>>>>>,iO",
"O>O4O>>>>>>O4O>OO>O4O>>>>>>O4O>O.1.++++++++++.1.#t<<<<<<<<<<<-t#@u,,,,,,,,,,,=u@Oi>>>>>>>>>>>,iO",
"O>O3O>;OO;>O3O>OO>O3O>;OO;>O3O>O.:+++++++++++.:.#0<<<<<<<<<<<-0#@2,,,,,,,,,,,=2@Oe>>>>>>>>>>>,eO",
"O;OOO;O88O;OOO;OO;OOO;O88O;OOO;O.&.&&&&&&&&&&.&.%555555555555;5%@77577777777577@OeeeeeeeeeeeeeeO",
"      4  4            4  4      pppppppppppppppppppppppppppppppppppppppppppppppppppppppppppppppp",
" ;O3OO3  3OO3O; pppppppppppppppppppppppppppppppppppppppppppppppppppppppppppppppppppppppppppppppp",
" >O3O$O33O$O3O> pppppppppppppppppppppppppppppppppppppppppppppppppppppppppppppppppppppppppppppppp",
" 2O4O;;OO;;O4O2 pppppppppppppppppppppppppppppppppppppppppppppppppppppppppppppppppppppppppppppppp",
" 2O4O;>;;>;O4O2 pppppppppppppppppppppppppppppppppppppppppppppppppppppppppppppppppppppppppppppppp",
" 2O4O;>>>>;O4O2 pppppppppppppppppppppppppppppppppppppppppppppppppppppppppppppppppppppppppppppppp",
" 2O4O;>>>>;O4O2 pppppppppppppppppppppppppppppppppppppppppppppppppppppppppppppppppppppppppppppppp",
" >O4O      O4O> pppppppppppppppppppppppppppppppppppppppppppppppppppppppppppppppppppppppppppppppp",
"X    XXXXXX    Xpppppppppppppppppppppppppppppppppppppppppppppppppppppppppppppppppppppppppppppppp",
"pooooooooooooooppppppppppppppppppppppppppppppppppppppppppppppppppppppppppppppppppppppppppppppppp",
"pppppppppppppppppppppppppppppppppppppppppppppppppppppppppppppppppppppppppppppppppppppppppppppppp"
};
