/* XPM */
static char *_6e5d734501b4acff20490cbc063f4545CNWtZK1ELuh9rK1[] = {
/* columns rows colors chars-per-pixel */
"16 32 4 1 ",
"  c #303A20",
". c #355E20",
"X c #559A36",
"o c #6CC95B",
/* pixels */
"  XX. .... .XX  ",
" .XXo.    .oXX. ",
" .ooX      Xoo. ",
"  .   X..X   .  ",
".XX. ..XX.. .XX.",
".XooX.X..X.XooX.",
"  oX. XooX .Xo  ",
" .X...oooo...X. ",
".XXX .    . XXX.",
".oXo X .. X oXo.",
".oo XX.XX.XX oo.",
" X Xo.XXXX.oX X ",
" .  o.    .o  . ",
" ..   ....   .. ",
"X.X. X.XX.X .X.X",
"XX    X  X    XX",
"   ..  ..  ..   ",
"  ... .... ...  ",
"  ..X  XX  X..  ",
". XX        XX .",
"..    .  .    ..",
"X.  ...  ...  .X",
" X  X.X  X.X  X ",
" .. XX    XX .. ",
" X. X  XX  X .X ",
"  X   XXXX   X  ",
".   ..    ..   .",
".X X..    ..X X.",
"   XX  XX  XX   ",
" ..X. XXXX .X.. ",
"  ..        ..  ",
"                "
};
