/* XPM */
static char *f549f049449e4762ee1566c685a15c0byhSmr1bVvcuSlWCF[] = {
/* columns rows colors chars-per-pixel */
"15 26 15 1 ",
"  c None",
". c #002538",
"X c #710077",
"o c #0B405B",
"O c #960037",
"+ c #A51B2B",
"@ c #AB2D34",
"# c #D04938",
"$ c #FF7542",
"% c #ED7361",
"& c #FFC900",
"* c #FFFC38",
"= c #D865AC",
"- c #1496A9",
"; c #FF97D3",
/* pixels */
"     @@@@@     ",
"    @$$$$$@    ",
"   @$&&&&&$@   ",
"  @$*&$$$&*$@  ",
"  @*&&$$$&&*@  ",
" @$**&&&&&**$@ ",
" @&&*******&&@ ",
" @&&&*****&&&@ ",
" @$&&&&&&&&&$@ ",
" @$&&&&&&&&&$@ ",
"  #&*&&&&&*&#  ",
" @$&&*****&&$@ ",
"@$&$&$&&&$&$&$@",
" @$&&$&&&$&&$@ ",
"&$#&&$&&&$&&#$&",
"$&&$#&&$&&#$&&$",
"@$$#$&&#&&$#$$@",
" @@@#$#@#$#@@@ ",
" +%X@@OOO@@X%+ ",
"  +X======;X+  ",
"    X===;;X    ",
"     XXXXX     ",
"    o+#o+#o    ",
"    o+%o+%o    ",
"    .-oo-o.    ",
"     .....     "
};
