/* XPM */
static char *c935da59177b4b958ea33141ad01f977GRkWpNE1kHAR3gLn[] = {
/* columns rows colors chars-per-pixel */
"16 26 30 1 ",
"  c None",
". c #002538",
"X c #5B0B2B",
"o c #062972",
"O c #710077",
"+ c #0B405B",
"@ c #960037",
"# c #A51B2B",
"$ c #AB2D34",
"% c #D04938",
"& c #FF7542",
"* c #ED7361",
"= c #FFC900",
"- c #FFFC38",
"; c #F98143",
": c #FFA67D",
"> c #002D8E",
", c #205BDB",
"< c #2978F4",
"1 c #B534AE",
"2 c #D865AC",
"3 c #1496A9",
"4 c #2E9FF7",
"5 c #57D1FB",
"6 c #FBA584",
"7 c #FFC8A8",
"8 c #FFD3A3",
"9 c #FF97D3",
"0 c #88C0E8",
"q c #EDF4FF",
/* pixels */
"     $$$$$$     ",
"    $&&&&&&$    ",
"   $&======&$   ",
"   $-=%=%==-$   ",
"  $&--%;%%--&$  ",
"  $=-&6666&-=$  ",
" $&==XX88XX==&$ ",
" $&=X0o88o0X=&$ ",
" $==%q4884q%==$ ",
" $&-%788887%-&$ ",
"  $-&##**##&-$  ",
" $&=q**77**q=&$ ",
"$&=&6qq77qq6&=&$",
" $=-->>qq>>--=$ ",
"=&%&845<<548&%&=",
"&==;8>,<<,>8&&=&",
"$&#88*@;;@*88#&$",
" $#8*>,,,,>*8#$ ",
"   ##122221##   ",
"    O299992O    ",
"     OOOOOO     ",
"     #:%%:#     ",
"     #8**8#     ",
"     #q**q#     ",
"     +3++3+     ",
"      ....      "
};
