/* XPM */
static char *result[] = {
/* columns rows colors chars-per-pixel */
"14 26 30 1 ",
"  c #002538",
". c #5B0B2B",
"X c #062972",
"o c #710077",
"O c #0B405B",
"+ c #960037",
"@ c #A51B2B",
"# c #AB2D34",
"$ c #D04938",
"% c #FF7542",
"& c #ED7361",
"* c #FFC900",
"= c #FFFC38",
"- c #F98143",
"; c #FFA67D",
": c #002D8E",
"> c #205BDB",
", c #2978F4",
"< c #B534AE",
"1 c #D865AC",
"2 c #1496A9",
"3 c #2E9FF7",
"4 c #57D1FB",
"5 c #FBA584",
"6 c #FFC8A8",
"7 c #FFD3A3",
"8 c #FF97D3",
"9 c #88C0E8",
"0 c #EDF4FF",
"q c None",
/* pixels */
"qqqq######qqqq",
"qqq#%%%%%%#qqq",
"qq#%*******#qq",
"qq#*=****$%*#q",
"q#%=====%$%$*#",
"q#%**==%555$*#",
"q#%***%5..7@-#",
"q#$***%.9X7@-#",
"q#$%**$50377#q",
"qq#%**$7777@#q",
"qq#%*=$777@#qq",
"q#%*==$&@@#%#q",
"#%*%=%007:#*#q",
"q#%**%:>00#%#q",
"qq#%%6:4,,:#qq",
"q#**%@>>,>:*#q",
"#%%@6@++--6@*#",
"q##@666>>:&@#q",
"qqq@&6@o<<oqqq",
"qqqq@@<881oqqq",
"qqqqoooooooqqq",
"qqqqq@;$;@qqqq",
"qqqqq@7&7@qqqq",
"qqqqq@0&0@qqqq",
"qqqqq 2O2 qqqq",
"qqqqq O2O2 qqq"
};
