/* XPM */
static char *result[] = {
/* columns rows colors chars-per-pixel */
"16 32 11 1 ",
"  c #550414",
". c #68102B",
"X c #841503",
"o c #871E09",
"O c #A0100E",
"+ c #CA1210",
"@ c #ED3F36",
"# c #B78110",
"$ c #CBA614",
"% c #F3DD1A",
"& c None",
/* pixels */
"o              o",
" XOOOOOOOOOOOOX ",
" O+@@@@@@@@@@+O ",
" +.          .+ ",
".+ .. .. .. . + ",
".+ X+ X+.X+ O + ",
".@ O+.O+.O+.X @ ",
" @ XX.XX.XX.. @ ",
" @.+@@@@@@@@O.@ ",
" @.O+++++++++.@ ",
" @.O++++++++O @ ",
" @.OOOOOOOOO. @ ",
" @.          .@ ",
".@... .. .. O.@ ",
".@.XX XX XX +.@ ",
".@.O+ O+ O+ @.@ ",
".@.O@.O@.O@$%.@ ",
".@.O@.O@.O@#$.@ ",
".@.O+.O+.O+.O.@ ",
" @.OO.OO.OO.O.@ ",
" @.+@@@@@@@@+X@ ",
" @.O+++++++++.@ ",
" @.O++++++++O @ ",
" @.OOOOOOOOO. @ ",
" @.           @ ",
" @ .. .. .. . @ ",
" @ XX XX XX . @ ",
" + O+.O+.O+ X + ",
" + O@.O@.O@.X.+ ",
" O O+ O+ O+ X.O ",
" . .. .. ..   . ",
"&&&&&&&&&&&&&&&&"
};
