/* XPM */
static char *_e7c3eb9a99444a7a3600252d26fd8c3zlWisouiT5bJhiNo[] = {
/* columns rows colors chars-per-pixel */
"16 16 6 1 ",
"  c None",
". c #803A3E",
"X c #FFC600",
"o c #FFE11E",
"O c #FFF0B2",
"+ c #FFEDED",
/* pixels */
"       ..       ",
"      .oo.      ",
"     .oooo.     ",
"     .oO+o.     ",
" .....OXXO..... ",
" .ooooOXXOoooo. ",
" .O+OoXXXXoO+O. ",
" .XXXXXXXXXXXX. ",
"  .XXXXXXXXXX.  ",
"   .oXXXXXXo.   ",
"  .oOXXXXXXOo.  ",
"  .OXXXXXXXXO.  ",
"  .XXXX..XXXX.  ",
"  .XXX.  .XXX.  ",
"  ....    ....  ",
"                "
};
