/* XPM */
static char *result[] = {
/* columns rows colors chars-per-pixel */
"16 31 14 1 ",
"  c #44100C",
". c #64211B",
"X c #7B311B",
"o c #915200",
"O c #9B4A1F",
"+ c #A86900",
"@ c #A35B25",
"# c #CD6918",
"$ c #CE7829",
"% c #F1B435",
"& c #F19B61",
"* c #FFE987",
"= c #FFFEF2",
"- c None",
/* pixels */
"------..--------",
"------.%.-------",
"------.oXX------",
"----- +%%%X-----",
"---- o+%**%X..--",
"---..+o%*=*o%.--",
"--.%.#o+%**X.---",
"--.. #+o+%%.----",
"-----.##+o.-----",
"------ oo ------",
"------ .% ------",
"----- .O.X -----",
"----- XO@@.-----",
"---- .X@$$@.----",
"---- XX@$@$.----",
"--- .XX@$@$@.---",
"--- X.X@$@@$.---",
"-- .X.X@$@@$@.--",
"- +X..X@$@@@$*.-",
"-  &..X@$@@@*@.-",
"- . +.X@$@@%O$.-",
" .X. +X@$@%O@$@.",
" XX.. %@$*O@@@$.",
" .X... %*O@@@@$ ",
"- .X..XO@@@@@$ -",
"-- .X.XO$@@@$ --",
"--- .XX@$@@$ ---",
"---- .X@$@$ ----",
"----- .@$$ -----",
"------ X@ ------",
"-------  -------"
};
