/* XPM */
static char *_330710ffbda48ced14e86448016c178dyq80rg2LTajYhiH[] = {
/* columns rows colors chars-per-pixel */
"18 19 9 1 ",
"  c None",
". c #A81110",
"X c #871C3E",
"o c #E51616",
"O c #F29C47",
"+ c #FDE46C",
"@ c #F9A7C4",
"# c #FFE5ED",
"$ c white",
/* pixels */
"                  ",
"       XXXX       ",
"     .X#$$#X.     ",
"   X.oo.oo#oo.X   ",
" XX##oooO+ooo##XX ",
"X#$$##..OO..#$$$@X",
"X@#$$#o..oooo#$$#X",
"X@@@#ooo###ooo###X",
"X@@@..o#$$$#o.###X",
"X@@@..@@#$##..###X",
"X@@@..@@@###..###X",
"X@@@..@@@###..###X",
"X@@@..@@@###..###X",
" X@@..@@@###..##X ",
"  X@..@@@###..@X  ",
"   XX.@@@##@.XX   ",
"     XX@@@@XX     ",
"       XXXX       ",
"                  "
};
