/* XPM */
static char *result[] = {
/* columns rows colors chars-per-pixel */
"32 64 15 1 ",
"  c #35001E",
". c #3D210B",
"X c #4A290D",
"o c #723A01",
"O c #AF6710",
"+ c #874D27",
"@ c #CE7829",
"# c #CD8628",
"$ c #E1982C",
"% c #E2982C",
"& c #EE9F30",
"* c #F1A12E",
"= c #F0A22E",
"- c #FFB032",
"; c None",
/* pixels */
";;;;;;;;;;;;XXXXXX;;;;;;;;;;;;;;",
";;;;;;;;;;;;XXXXXX;;;;;;;;;;;;;;",
";;;;;;;;;;XX==@@==XX;;;;;;;;;;;;",
";;;;;;;;;;XX==@@==XX;;;;;;;;;;;;",
";;;;;;;;;;XX@@##@@XX;;;;;;;;;;;;",
";;;;;;;;;;XX@@##@@XX;;;;;;;;;;;;",
";;XXXXXXXXooooooooooXXXXXXXXXX;;",
";;XXXXXXXXooooooooooXXXXXXXXXX;;",
"..&&@@@@@@@@@@@@@@@@@@@@@@@@**XX",
"..&&@@@@@@@@@@@@@@@@@@@@@@@@**XX",
"..@@$$--------------------%%@@XX",
"..@@$$--------------------%%@@XX",
"..++OOOOOOOOOOOOOOOOOOOOOOOOOOXX",
"..++OOOOOOOOOOOOOOOOOOOOOOOOOOXX",
"..oo++++++++++++++++++++++++OOXX",
"..oo++++++++++++++++++++++++OOXX",
"..oo++++++++++++++++++++++++OOXX",
"..oo++++++++++++++++++++++++OOXX",
"..oo++++++++++++++++++++++++OOXX",
"..oo++++++++++++++++++++++++OOXX",
"..oo++++++++++++++++++++++++OOXX",
"..oo++++++++++++++++++++++++OOXX",
"..oo++++++++++++++++++++++++OOXX",
"..oo++++++++++++++++++++++++OOXX",
"..oo++++++++++++++++++++++++OOXX",
"..oo++++++++++++++++++++++++OOXX",
"..oo++++++++++++++++++++++++OOXX",
"..oo++++++++++++++++++++++++OOXX",
"..oo++++++++++++++++++++++++OOXX",
"..oo++++++++++++++++++++++++OOXX",
"..oo++++++++++++++++++++++++OOXX",
"..oo++++++++++++++++++++++++OOXX",
"..oo++++++++++++++++++++++++OOXX",
"..oo++++++++++++++++++++++++OOXX",
"..oo++++++++++++++++++++++++OOXX",
"..oo++++++++++++++++++++++++OOXX",
"..oo++++++++++++++++++++++++OOXX",
"..oo++++++++++++++++++++++++OOXX",
"..oo++++++++++++++++++++++++OOXX",
"..oo++++++++++++++++++++++++OOXX",
"..oo++++++++++++++++++++++++OOXX",
"..oo++++++++++++++++++++++++OOXX",
"..oooooooooooooooooooooooooo++XX",
"..oooooooooooooooooooooooooo++XX",
";;..........................XX;;",
";;..........................XX;;",
";;;;;;;;;;..XXXXXX..;;;;;;;;;;;;",
";;;;;;;;;;..XXXXXX..;;;;;;;;;;;;",
";;;;;;;;;;..oo++++..;;;;;;;;;;;;",
";;;;;;;;;;..oo++++..;;;;;;;;;;;;",
";;;;;;;;;;..oo++@@XX;;;;;;;;;;;;",
";;;;;;;;;;..oo++@@XX;;;;;;;;;;;;",
";;;;;;;;;;..ooOO@@XX;;;;;;;;;;;;",
";;;;;;;;;;..ooOO@@XX;;;;;;;;;;;;",
";;;;;;;;;;..ooOO@@XX;;;;;;;;;;;;",
";;;;;;;;;;..ooOO@@XX;;;;;;;;;;;;",
";;;;;;;;  ..oo++++XX;;;;;;;;;;;;",
";;;;;;;;  ..oo++++XX;;;;;;;;;;;;",
";;;;;;;;    ..XXXX  ;;;;;;;;;;;;",
";;;;;;;;    ..XXXX  ;;;;;;;;;;;;",
";;;;;;;;;;        ;;;;;;;;;;;;;;",
";;;;;;;;;;        ;;;;;;;;;;;;;;",
";;;;;;;;;;;;;;;;;;;;;;;;;;;;;;;;",
";;;;;;;;;;;;;;;;;;;;;;;;;;;;;;;;"
};
