/* XPM */
static char *result[] = {
/* columns rows colors chars-per-pixel */
"37 64 25 1 ",
"  c #1E0D04",
". c #30211A",
"X c #310D23",
"o c #330D23",
"O c #382B27",
"+ c #453427",
"@ c #433734",
"# c #5C544D",
"$ c #7B7B7B",
"% c #925100",
"& c #A96900",
"* c #817B74",
"= c #D18501",
"- c #F1B532",
"; c #A6978F",
": c #B2AAA3",
"> c #BEB3AB",
", c #C3B5AB",
"< c #C4B5AB",
"1 c #C1B5AD",
"2 c #C5B7AD",
"3 c #FFEA88",
"4 c #D0C0B4",
"5 c #E8D8C8",
"6 c None",
/* pixels */
"6666666666666666666666666666666666666",
"6666666666666666666666666666666666666",
"6666666666666666666666666666666666666",
"6666666666666666666666666666666666666",
"6666666666666666666666666666666666666",
"6666666666666666666666666666666666666",
"6666666666666666666666666666666666666",
"6666666666666666666666666666666666666",
"6666666666666666666666666666666666666",
"@@@@@++%%+++@@@@@@@@@@@@@+++%%++@@@@@",
"@@@@@++%%+++@@@@@@@@@@@@@+++%%++@@@@@",
"@@@@@++%%+++@@@@@@@@@@@@@+++%%++@@@@@",
"..***++--+++::11111>>::;;+++--++***..",
"..***++--+++::11111>>::;;+++--++***..",
"..:::@@33###,,1111111<<;;###33@@:::..",
"..:::@@33###,,1111111<<;;###33@@:::..",
"..:::@@33###,,1111111<<;;###33@@:::..",
"..444##33###::224444444;;###33##444..",
"..444##33###::224444444;;###33##444..",
"..444##33###44444444444;;###33##444..",
"..444##33###44444444444;;###33##444..",
"..444##33###44444444444;;###33##444..",
"..444##33###44444444444;;###33##444..",
"..444##33###44444444444;;###33##444..",
"..444##33###44445554444;;###33##444..",
"..444##33###44445554444;;###33##444..",
"..444@@--@@@44555555544;;@@@--@@444..",
"..444@@--@@@44555555544;;@@@--@@444..",
"..555@@==@@@5555555555544@@@==@@555..",
"..555@@==@@@5555555555544@@@==@@555..",
"..555@@==@@@5555555555544@@@==@@555..",
"..###..&&...#############...&&..###..",
"..###..&&...#############...&&..###..",
"..###..%%...##@@.....@@##...%%..###..",
"..###..%%...##@@.....@@##...%%..###..",
"..###..%%...##@@.....@@##...%%..###..",
"..@@@.......@@..=====..@@.......@@@..",
"..@@@.......@@..=====..@@.......@@@..",
"              &&     &&              ",
"              &&     &&              ",
"  @@@..%%.....%%     %%.....%%..@@@  ",
"  @@@..%%.....%%     %%.....%%..@@@  ",
"  @@@..%%.....%%     %%.....%%..@@@  ",
"  ###..%%...OO..%%%%%..OO...%%..###  ",
"  ###..%%...OO..%%%%%..OO...%%..###  ",
"  $$$..&&...@@@@.....@@@@...&&..$$$  ",
"  $$$..&&...@@@@.....@@@@...&&..$$$  ",
"  $$$..&&...@@##@@@@@##@@...&&..$$$  ",
"  $$$..&&...@@##@@@@@##@@...&&..$$$  ",
"  $$$..&&...@@##@@@@@##@@...&&..$$$  ",
"  $$$..&&...@@#########@@...&&..$$$  ",
"  $$$..&&...@@#########@@...&&..$$$  ",
"  $$$..&&...@@#########@@...&&..$$$  ",
"  $$$..&&...@@#########@@...&&..$$$  ",
"  $$$..&&...@@#########@@...&&..$$$  ",
"  ###..&&...             ...&&..###  ",
"  ###..&&...             ...&&..###  ",
"XX          XXXXXXXXXXXXX          XX",
"XX          XXXXXXXXXXXXX          XX",
"66ooooooooooooooooooooooooooooooooo66",
"66ooooooooooooooooooooooooooooooooo66",
"66ooooooooooooooooooooooooooooooooo66",
"6666666666666666666666666666666666666",
"6666666666666666666666666666666666666"
};
