/* XPM */
static char *result[] = {
/* columns rows colors chars-per-pixel */
"33 64 21 1 ",
"  c #1E0D04",
". c #30211A",
"X c #453427",
"o c #433734",
"O c #5C544D",
"+ c #925100",
"@ c #A96900",
"# c #817B74",
"$ c #D18501",
"% c #F1B532",
"& c #A6978F",
"* c #B2AAA3",
"= c #BEB3AB",
"- c #C3B5AB",
"; c #C4B5AB",
": c #C1B5AD",
"> c #C5B7AD",
", c #FFEA88",
"< c #D0C0B4",
"1 c #E8D8C8",
"2 c None",
/* pixels */
"222222222222222222222222222222222",
"222222222222222222222222222222222",
"222222222222222222222222222222222",
"222222222222222222222222222222222",
"222222222222222222222222222222222",
"222222222222222222222222222222222",
"222222222222222222222222222222222",
"222222222222222222222222222222222",
"222222222222222222222222222222222",
"222222222222222222222222222222222",
"222222222222222222222222222222222",
"222222222222222222222222222222222",
"222222222222222222222222222222222",
"222222222222222222222222222222222",
"222222222222222222222222222222222",
"222222222222222222222222222222222",
"222222222222222222222222222222222",
"ooooXX++XXoooooooooooooXX++XXoooo",
"ooooXX++XXoooooooooooooXX++XXoooo",
"..##XX%%XX**:::::==**&&XX%%XX##..",
"..##XX%%XX**:::::==**&&XX%%XX##..",
"..**oo,,OO--:::::::;;&&OO,,oo**..",
"..**oo,,OO--:::::::;;&&OO,,oo**..",
"..<<OO,,OO**>><<<<<<<&&OO,,OO<<..",
"..<<OO,,OO**>><<<<<<<&&OO,,OO<<..",
"..<<OO,,OO<<<<<<<<<<<&&OO,,OO<<..",
"..<<OO,,OO<<<<<<<<<<<&&OO,,OO<<..",
"..<<OO,,OO<<<<<<<<<<<&&OO,,OO<<..",
"..<<OO,,OO<<<<<<<<<<<&&OO,,OO<<..",
"..<<OO,,OO<<<<111<<<<&&OO,,OO<<..",
"..<<OO,,OO<<<<111<<<<&&OO,,OO<<..",
"..<<oo%%oo<<1111111<<&&oo%%oo<<..",
"..<<oo%%oo<<1111111<<&&oo%%oo<<..",
"..11oo$$oo11111111111<<oo$$oo11..",
"..11oo$$oo11111111111<<oo$$oo11..",
"..OO..@@..OOOOOOOOOOOOO..@@..OO..",
"..OO..@@..OOOOOOOOOOOOO..@@..OO..",
"..OO..++..OOoo.....ooOO..++..OO..",
"..OO..++..OOoo.....ooOO..++..OO..",
"..oo......oo..$$$$$..oo......oo..",
"..oo......oo..$$$$$..oo......oo..",
"            @@     @@            ",
"            @@     @@            ",
"222222222222222222222222222222222",
"222222222222222222222222222222222",
"222222222222222222222222222222222",
"222222222222222222222222222222222",
"222222222222222222222222222222222",
"222222222222222222222222222222222",
"222222222222222222222222222222222",
"222222222222222222222222222222222",
"222222222222222222222222222222222",
"222222222222222222222222222222222",
"222222222222222222222222222222222",
"222222222222222222222222222222222",
"222222222222222222222222222222222",
"222222222222222222222222222222222",
"222222222222222222222222222222222",
"222222222222222222222222222222222",
"222222222222222222222222222222222",
"222222222222222222222222222222222",
"222222222222222222222222222222222",
"222222222222222222222222222222222",
"222222222222222222222222222222222"
};
