/* XPM */
static char *result[] = {
/* columns rows colors chars-per-pixel */
"33 64 23 1 ",
"  c #291E18",
". c #30211A",
"X c #342923",
"o c #3D322C",
"O c #433734",
"+ c #524742",
"@ c #5C544D",
"# c #7D736D",
"$ c #925100",
"% c #A96900",
"& c #817B74",
"* c #D18501",
"= c #F1B532",
"- c #A6978F",
"; c #B2AAA3",
": c #BEB3AB",
"> c #C4B5AB",
", c #C1B5AD",
"< c #CCBDB3",
"1 c #FFEA88",
"2 c #D0C0B4",
"3 c #E8D8C8",
"4 c None",
/* pixels */
"444444444444444444444444444444444",
"444444444444444444444444444444444",
"444444444444444444444444444444444",
"444444444444444444444444444444444",
"444444444444444444444444444444444",
"444444444444444444444444444444444",
"444444444444444444444444444444444",
"444444444444444444444444444444444",
"444444444444444444444444444444444",
"444444444444444444444444444444444",
"OOOO..$$..OOOOOOOOOOOOO..$$..OOOO",
"OOOO..$$..OOOOOOOOOOOOO..$$..OOOO",
"OO&&..==OO;;<<,,,::;;--OO==..&&OO",
"OO&&..==OO;;<<,,,::;;--OO==..&&OO",
"OO;;OO11OO;;;;,,,,,>>--OO11OO;;OO",
"OO;;OO11OO;;;;,,,,,>>--OO11OO;;OO",
"OO;;OO11OO;;;;,,,,,>>--OO11OO;;OO",
"OO22OO11OO22222222222--OO11OO22OO",
"OO22OO11OO22222222222--OO11OO22OO",
"OO22OO11OO22333333322--OO11OO22OO",
"OO22OO11OO22333333322--OO11OO22OO",
"OO33..11..3333333333322..11..33OO",
"OO33..11..3333333333322..11..33OO",
"OO@@..==..@@@@@@@@@@@@@..==..@@OO",
"OO@@..==..@@@@@@@@@@@@@..==..@@OO",
"OO@@..%%..@@@@@@@@@@@@@..%%..@@OO",
"OO@@..%%..@@@@@@@@@@@@@..%%..@@OO",
"OO@@..$$..@@OO.....OO@@..$$..@@OO",
"OO@@..$$..@@OO.....OO@@..$$..@@OO",
"OOOO......OO..*****..OO......OOOO",
"OOOO......OO..*****..OO......OOOO",
"  ##                         ##  ",
"  ##                         ##  ",
"  ##  XXXXXXXXXXXXXXXXXXXXX  ##  ",
"  ##  XXXXXXXXXXXXXXXXXXXXX  ##  ",
"  ##  XXXXXXXXXXXXXXXXXXXXX  ##  ",
"  ##  XXXXXXXXXXXXXXXXXXXXX  ##  ",
"  ++XXXXXXXXXXXXXXXXXXXXXXX  ++  ",
"  ++XXXXXXXXXXXXXXXXXXXXXXX  ++  ",
"  oo  ooooooooooooooooooooo  oo  ",
"  oo  ooooooooooooooooooooo  oo  ",
"444444444444444444444444444444444",
"444444444444444444444444444444444",
"444444444444444444444444444444444",
"444444444444444444444444444444444",
"444444444444444444444444444444444",
"444444444444444444444444444444444",
"444444444444444444444444444444444",
"444444444444444444444444444444444",
"444444444444444444444444444444444",
"444444444444444444444444444444444",
"444444444444444444444444444444444",
"444444444444444444444444444444444",
"444444444444444444444444444444444",
"444444444444444444444444444444444",
"444444444444444444444444444444444",
"444444444444444444444444444444444",
"444444444444444444444444444444444",
"444444444444444444444444444444444",
"444444444444444444444444444444444",
"444444444444444444444444444444444",
"444444444444444444444444444444444",
"444444444444444444444444444444444",
"444444444444444444444444444444444"
};
