/* XPM */
static char *result[] = {
/* columns rows colors chars-per-pixel */
"33 64 23 1 ",
"  c #291E18",
". c #30211A",
"X c #362B25",
"o c #392E29",
"O c #3D322C",
"+ c #403530",
"@ c #413631",
"# c #423732",
"$ c #433734",
"% c #453A35",
"& c #5C544D",
"* c #665C56",
"= c #925100",
"- c #A96900",
"; c #837974",
": c #817B74",
"> c #D18501",
", c #F1B532",
"< c #9C928D",
"1 c #B2AAA3",
"2 c #FFEA88",
"3 c #CCC2BD",
"4 c None",
/* pixels */
"444444444444444444444444444444444",
"444444444444444444444444444444444",
"444444444444444444444444444444444",
"444444444444444444444444444444444",
"444444444444444444444444444444444",
"444444444444444444444444444444444",
"444444444444444444444444444444444",
"444444444444444444444444444444444",
"$$$$..==..$$$$$$$$$$$$$..==..$$$$",
"$$$$..==..$$$$$$$$$$$$$..==..$$$$",
"$$::$$22$$:::::::::::::$$22$$::$$",
"$$::$$22$$:::::::::::::$$22$$::$$",
"$$11$$22$$1111111111111$$22$$11$$",
"$$11$$22$$1111111111111$$22$$11$$",
"$$&&$$,,$$&&&&&&&&&&&&&$$,,$$&&$$",
"$$&&$$,,$$&&&&&&&&&&&&&$$,,$$&&$$",
"$$&&$$,,$$&&&&&&&&&&&&&$$,,$$&&$$",
"$$&&..--..&&&&&&&&&&&&&$$--..&&$$",
"$$&&..--..&&&&&&&&&&&&&$$--..&&$$",
"$$&&..==..&&$$.....$$&&$$==..&&$$",
"$$&&..==..&&$$.....$$&&$$==..&&$$",
"$$$$......$$..>>>>>..$$......$$$$",
"$$$$......$$..>>>>>..$$......$$$$",
"XX&&                         &&XX",
"XX&&                         &&XX",
"XX<<XXXXXXXXXXXXXXXXXXXXXXXXX<<XX",
"XX<<XXXXXXXXXXXXXXXXXXXXXXXXX<<XX",
"XX33XXOOOOOOOOOOOOOOOOOOOOO@@33XX",
"XX33XXOOOOOOOOOOOOOOOOOOOOO@@33XX",
"XX33++OOOOOOOOOOOOOOOOOOO%%XX33XX",
"XX33++OOOOOOOOOOOOOOOOOOO%%XX33XX",
"XX33#########################33XX",
"XX33#########################33XX",
"XX33##*********************##33XX",
"XX33##*********************##33XX",
"XX33***********************##33XX",
"XX33***********************##33XX",
"XX<<***********************##<<XX",
"XX<<***********************##<<XX",
"oo;;;;;;;;;;;;;;;;;;;;;;;;;$$;;oo",
"oo;;;;;;;;;;;;;;;;;;;;;;;;;$$;;oo",
"444444444444444444444444444444444",
"444444444444444444444444444444444",
"444444444444444444444444444444444",
"444444444444444444444444444444444",
"444444444444444444444444444444444",
"444444444444444444444444444444444",
"444444444444444444444444444444444",
"444444444444444444444444444444444",
"444444444444444444444444444444444",
"444444444444444444444444444444444",
"444444444444444444444444444444444",
"444444444444444444444444444444444",
"444444444444444444444444444444444",
"444444444444444444444444444444444",
"444444444444444444444444444444444",
"444444444444444444444444444444444",
"444444444444444444444444444444444",
"444444444444444444444444444444444",
"444444444444444444444444444444444",
"444444444444444444444444444444444",
"444444444444444444444444444444444",
"444444444444444444444444444444444",
"444444444444444444444444444444444"
};
