/* XPM */
static char *result[] = {
/* columns rows colors chars-per-pixel */
"33 64 22 1 ",
"  c #30211A",
". c #352A24",
"X c #362B25",
"o c #3C312B",
"O c #3F342E",
"+ c #403530",
"@ c #413631",
"# c #433734",
"$ c #453A35",
"% c #5C544D",
"& c #655B55",
"* c #7B7B7B",
"= c #925100",
"- c #A96900",
"; c #837974",
": c #817B74",
"> c #897F7A",
", c #D18501",
"< c #F1B532",
"1 c #FFEA88",
"2 c #E5DBD6",
"3 c None",
/* pixels */
"333333333333333333333333333333333",
"333333333333333333333333333333333",
"333333333333333333333333333333333",
"333333333333333333333333333333333",
"333333333333333333333333333333333",
"333333333333333333333333333333333",
"####  --  #############  --  ####",
"####  --  #############  --  ####",
"##::##11##:::::::::::::##11  ::##",
"##::##11##:::::::::::::##11  ::##",
"##%%##<<##%%%%%%%%%%%%%##<<##%%##",
"##%%##<<##%%%%%%%%%%%%%##<<##%%##",
"##%%##--##%%%%%%%%%%%%%##--##%%##",
"##%%##--##%%%%%%%%%%%%%##--##%%##",
"##%%  ==  %%##     ##%%##==  %%##",
"##%%  ==  %%##     ##%%##==  %%##",
"##%%  ==  %%##     ##%%##==  %%##",
"####      ##  ,,,,,  ##      ####",
"####      ##  ,,,,,  ##      ####",
"XX&&&&&&  &&&&&&&&&&&&&  &&&&&&XX",
"XX&&&&&&  &&&&&&&&&&&&&  &&&&&&XX",
"..**@@@@@@@@@@@@@@@@@@@@@@@@@**..",
"..**@@@@@@@@@@@@@@@@@@@@@@@@@**..",
"..22....@@.......@@......@@..22..",
"..22....@@.......@@......@@..22..",
"..22.........................22..",
"..22.........................22..",
"..22..ooooooooooooooooooooo++22..",
"..22..ooooooooooooooooooooo++22..",
"..22OOooooooooooooooooooo$$..22..",
"..22OOooooooooooooooooooo$$..22..",
"..22@@@@@@@@@@@@@@@@@@@@@@@@@22..",
"..22@@@@@@@@@@@@@@@@@@@@@@@@@22..",
"..22@@&&&&&&&&&&&&&&&&&&&&&@@22..",
"..22@@&&&&&&&&&&&&&&&&&&&&&@@22..",
"..22&&&&&&&&&&&&&&&&&&&&&&&@@22..",
"..22&&&&&&&&&&&&&&&&&&&&&&&@@22..",
"..**&&&&&&&&&&&&&&&&&&&&&&&@@**..",
"..**&&&&&&&&&&&&&&&&&&&&&&&@@**..",
"..>>>>;;>>>>>>>>>>>>>>>>>;;>>>>..",
"..>>>>;;>>>>>>>>>>>>>>>>>;;>>>>..",
"333333333333333333333333333333333",
"333333333333333333333333333333333",
"333333333333333333333333333333333",
"333333333333333333333333333333333",
"333333333333333333333333333333333",
"333333333333333333333333333333333",
"333333333333333333333333333333333",
"333333333333333333333333333333333",
"333333333333333333333333333333333",
"333333333333333333333333333333333",
"333333333333333333333333333333333",
"333333333333333333333333333333333",
"333333333333333333333333333333333",
"333333333333333333333333333333333",
"333333333333333333333333333333333",
"333333333333333333333333333333333",
"333333333333333333333333333333333",
"333333333333333333333333333333333",
"333333333333333333333333333333333",
"333333333333333333333333333333333",
"333333333333333333333333333333333",
"333333333333333333333333333333333",
"333333333333333333333333333333333"
};
