/* XPM */
static char *result[] = {
/* columns rows colors chars-per-pixel */
"33 64 17 1 ",
"  c #30211A",
". c #392C28",
"X c #403330",
"o c #413531",
"O c #433734",
"+ c #453833",
"@ c #5C544D",
"# c #655B55",
"$ c #7B7B7B",
"% c #925100",
"& c #A96900",
"* c #D18501",
"= c #F1B532",
"- c #D0C0B4",
"; c #FFFEF2",
": c white",
"> c None",
/* pixels */
"OOOO  &&  OOOOOOOOOOOOO  &&  OOOO",
"OOOO  &&  OOOOOOOOOOOOO  &&  OOOO",
"OO@@  ==OO@@@@@@@@@@@@@OO==  @@OO",
"OO@@  ==OO@@@@@@@@@@@@@OO==  @@OO",
"OO@@OO&&OO@@@@@@@@@@@@@OO&&OO@@OO",
"OO@@OO&&OO@@@@@@@@@@@@@OO&&OO@@OO",
"OO@@OO&&  @@OO     OO@@  &&OO@@OO",
"OO@@OO&&  @@OO     OO@@  &&OO@@OO",
"OOOO  %%  OO  *****  OO  %%  OOOO",
"OOOO  %%  OO  *****  OO  %%  OOOO",
"OO                             OO",
"OO                             OO",
"OO                             OO",
"OO                             OO",
"OOOOOOOOOOOOOOOOOOOOOOOOOOOOOOOOO",
"OOOOOOOOOOOOOOOOOOOOOOOOOOOOOOOOO",
"OOOOOOOOOOOOOOOOOOOOOOOOOOOOOOOOO",
"::      $$             $$      ::",
"::      $$             $$      ::",
"  ------$$-------------$$------  ",
"  ------$$-------------$$------  ",
"  --OOOOOOOOOOOOOOOOOOOOOOOOO--  ",
"  --OOOOOOOOOOOOOOOOOOOOOOOOO--  ",
"  ;;    OO       OO      OO  ;;  ",
"  ;;    OO       OO      OO  ;;  ",
"  ;;                         ;;  ",
"  ;;                         ;;  ",
"  ;;  .....................oo;;  ",
"  ;;  .....................oo;;  ",
"  ;;XX...................++  ;;  ",
"  ;;XX...................++  ;;  ",
"  ;;OOOOOOOOOOOOOOOOOOOOOOOOO;;  ",
"  ;;OOOOOOOOOOOOOOOOOOOOOOOOO;;  ",
"  ;;OO@@@@@@@@@@@@@@@@@@@@@##;;  ",
"  ;;OO@@@@@@@@@@@@@@@@@@@@@##;;  ",
"  ;;@@@@@@@@@@@@@@@@@@@@@@@##;;  ",
"  ;;@@@@@@@@@@@@@@@@@@@@@@@##;;  ",
"  --@@@@@@@@@@@@@@@@@@@@@@@##--  ",
"  --@@@@@@@@@@@@@@@@@@@@@@@##--  ",
"  -----------------------------  ",
"  -----------------------------  ",
">>>>>>>>>>>>>>>>>>>>>>>>>>>>>>>>>",
">>>>>>>>>>>>>>>>>>>>>>>>>>>>>>>>>",
">>>>>>>>>>>>>>>>>>>>>>>>>>>>>>>>>",
">>>>>>>>>>>>>>>>>>>>>>>>>>>>>>>>>",
">>>>>>>>>>>>>>>>>>>>>>>>>>>>>>>>>",
">>>>>>>>>>>>>>>>>>>>>>>>>>>>>>>>>",
">>>>>>>>>>>>>>>>>>>>>>>>>>>>>>>>>",
">>>>>>>>>>>>>>>>>>>>>>>>>>>>>>>>>",
">>>>>>>>>>>>>>>>>>>>>>>>>>>>>>>>>",
">>>>>>>>>>>>>>>>>>>>>>>>>>>>>>>>>",
">>>>>>>>>>>>>>>>>>>>>>>>>>>>>>>>>",
">>>>>>>>>>>>>>>>>>>>>>>>>>>>>>>>>",
">>>>>>>>>>>>>>>>>>>>>>>>>>>>>>>>>",
">>>>>>>>>>>>>>>>>>>>>>>>>>>>>>>>>",
">>>>>>>>>>>>>>>>>>>>>>>>>>>>>>>>>",
">>>>>>>>>>>>>>>>>>>>>>>>>>>>>>>>>",
">>>>>>>>>>>>>>>>>>>>>>>>>>>>>>>>>",
">>>>>>>>>>>>>>>>>>>>>>>>>>>>>>>>>",
">>>>>>>>>>>>>>>>>>>>>>>>>>>>>>>>>",
">>>>>>>>>>>>>>>>>>>>>>>>>>>>>>>>>",
">>>>>>>>>>>>>>>>>>>>>>>>>>>>>>>>>",
">>>>>>>>>>>>>>>>>>>>>>>>>>>>>>>>>",
">>>>>>>>>>>>>>>>>>>>>>>>>>>>>>>>>"
};
