/* XPM */
static char *result[] = {
/* columns rows colors chars-per-pixel */
"32 64 15 1 ",
"  c #3C1401",
". c #4D2108",
"X c #602B0B",
"o c #703C0F",
"O c #764211",
"+ c #774311",
"@ c #794412",
"# c #7C4714",
"$ c #9D611F",
"% c #E18600",
"& c #F8AB0A",
"* c #C4892D",
"= c #FFFF29",
"- c #F1B446",
"; c None",
/* pixels */
";;;;;;;;;;;;........;;;;;;;;;;;;",
";;;;;;;;;;;;........;;;;;;;;;;;;",
";;;;;;;;......++++XX....;;;;;;;;",
";;;;;;;;......++++XX....;;;;;;;;",
";;;;;;....XX..XX++++..XX..;;;;;;",
";;;;;;....XX..XX++++..XX..;;;;;;",
";;;;..XX..++..XX++++..++....;;;;",
";;;;..XX..++..XX++++..++....;;;;",
";;;;..++..XX..XXXX++..XX....;;;;",
";;;;..++..XX..XXXX++..XX....;;;;",
";;....++..XX..XXXX++..XX..XX..;;",
";;....++..XX..XXXX++..XX..XX..;;",
";;....XX..++..XXXX++..++..++..;;",
";;....XX..++..XXXX++..++..++..;;",
";;....XX..++..XXXXXX..XX..++..;;",
";;....XX..++..XXXXXX..XX..++..;;",
"..XX..XX..++..XXXX++..XX..XX....",
"..XX..XX..++..XXXX++..XX..XX....",
"..XX..++..++..XXXXXX..XX..XX....",
"..XX..++..++..XXXXXX..XX..XX....",
"..++..++..++..XXXXXX..XX..++....",
"..++..++..++..XXXXXX..XX..++....",
"..$$****----------------****$$..",
"..$$****----------------****$$..",
"..++++++++++++++++++++++++++++..",
"..++++++++++++++++++++++++++++..",
"....                      ......",
"....                      ......",
"..XX  ......  ..  ......  ......",
"..XX  ......  ..  ......  ......",
"..++..XXXXXX..XX..XXXXXX..XXXX..",
"..++..XXXXXX..XX..XXXXXX..XXXX..",
"..XX..++XXXX..XX..++XXXX..XXXX..",
"..XX..++XXXX..XX..++XXXX..XXXX..",
"..XX..++XXXX..++..XXXXXX%%==XX..",
"..XX..++XXXX..++..XXXXXX%%==XX..",
"..++..++XXXX..++..++XXXX%%&&XX..",
"..++..++XXXX..++..++XXXX%%&&XX..",
"..++..++XXXX..++..++XXXX....XX..",
"..++..++XXXX..++..++XXXX....XX..",
"..++..++XXXX..XX..++XXXX..XXXX..",
"..++..++XXXX..XX..++XXXX..XXXX..",
"..++..XXXX++..XX..++XX++..++XX..",
"..++..XXXX++..XX..++XX++..++XX..",
"..++..++XXXX..XX..++XXXX..++XX..",
"..++..++XXXX..XX..++XXXX..++XX..",
"..++..@@XX++..++..##XX++..OOXX..",
"..++..@@XX++..++..##XX++..OOXX..",
"..XX..XXoo++..++..XXoo++..XXoo..",
"..XX..XXoo++..++..XXoo++..XXoo..",
"..$$****----------------****$$..",
"..$$****----------------****$$..",
"..++++++++++++++++++++++++++++..",
"..++++++++++++++++++++++++++++..",
"..                          ....",
"..                          ....",
"..XX  ..  ......  ......  XX....",
"..XX  ..  ......  ......  XX....",
"..XX..XX..XXXXXX..XXXXXX..XX....",
"..XX..XX..XXXXXX..XXXXXX..XX....",
"..++..XX..XXXX++..++XX++..++....",
"..++..XX..XXXX++..++XX++..++....",
"..XX..XX..XXXX++..++XXXX..XX....",
"..XX..XX..XXXX++..++XXXX..XX...."
};
