/* XPM */
static char *result[] = {
/* columns rows colors chars-per-pixel */
"64 64 9 1 ",
"  c #303A20",
". c #355321",
"X c #365B21",
"o c #355E20",
"O c #4A8530",
"+ c #4F8F32",
"@ c #508F34",
"# c #559A36",
"$ c #6CC95B",
/* pixels */
"        oooo            ++++oooooooo++++            oooo        ",
"oooo########oooo    ooooooooOOOOOOOOoooooooo    oooo########oooo",
"oooo########oooo    ooooooooOOOOOOOOoooooooo    oooo########oooo",
"oooo########oooo    ooooooooOOOOOOOOoooooooo    oooo########oooo",
"oooo####$$$$$$$$####oooo++++oooooooo++++oooo####$$$$$$$$####oooo",
"oooo####$$$$$$$$####oooo++++oooooooo++++oooo####$$$$$$$$####oooo",
"oooo####$$$$$$$$####oooo++++oooooooo++++oooo####$$$$$$$$####oooo",
"        $$$$####oooo    ####$$$$$$$$####    oooo####$$$$        ",
"        $$$$####oooo    ####$$$$$$$$####    oooo####$$$$        ",
"    oooo####oooooooooooo$$$$$$$$$$$$$$$$oooooooooooo####oooo    ",
"    oooo####oooooooooooo$$$$$$$$$$$$$$$$oooooooooooo####oooo    ",
"    oooo####oooooooooooo$$$$$$$$$$$$$$$$oooooooooooo####oooo    ",
"oooo############    oooo                oooo    ############oooo",
"oooo############    oooo                oooo    ############oooo",
"oooo$$$$####$$$$    ####    oooooooo    ####    $$$$####$$$$oooo",
"oooo$$$$####$$$$    ####    oooooooo    ####    $$$$####$$$$oooo",
"oooo$$$$####$$$$    ####    oooooooo    ####    $$$$####$$$$oooo",
"oooo$$$$$$$$    ####++++oooo########oooo++++####    $$$$$$$$oooo",
"oooo$$$$$$$$    ####++++oooo########oooo++++####    $$$$$$$$oooo",
"oooo$$$$$$$$    ####++++oooo########oooo++++####    $$$$$$$$oooo",
"    ####    ####$$$$oooo@@@@########@@@@oooo$$$$####    ####    ",
"    ####    ####$$$$oooo@@@@########@@@@oooo$$$$####    ####    ",
"    oooo        $$$$XXXX                XXXX$$$$        oooo    ",
"    oooo        $$$$XXXX                XXXX$$$$        oooo    ",
"    oooo        $$$$XX..                ..XX$$$$        oooo    ",
"    oooooooo            ..XXooooooooXX..            oooooooo    ",
"    oooooooo            XXXXooooooooXXXX            oooooooo    ",
"####oooo####oooo    ####oooo########oooo####    oooo####oooo####",
"####oooo####oooo    ####oooo########oooo####    oooo####oooo####",
"####oooo####oooo    ####oooo########oooo####    oooo####oooo####",
"########                ####        ####                ########",
"########                ####        ####                ########",
"########                ####        ####                ########",
"            oooooooo        oooooooo        oooooooo            ",
"            oooooooo        oooooooo        oooooooo            ",
"        oooooooooooo    oooooooooooooooo    oooooooooooo        ",
"        oooooooooooo    oooooooooooooooo    oooooooooooo        ",
"        oooooooooooo    oooooooooooooooo    oooooooooooo        ",
"        oooooooo####        ########        ####oooooooo        ",
"        oooooooo####        ########        ####oooooooo        ",
"oooo    ########                                ########    oooo",
"oooo    ########                                ########    oooo",
"oooo    ########                                ########    oooo",
"oooooooo                oooo        oooo                oooooooo",
"oooooooo                oooo        oooo                oooooooo",
"oooooooo                oooo        oooo                oooooooo",
"####oooo        oooooooooooo        oooooooooooo        oooo####",
"####oooo        oooooooooooo        oooooooooooo        oooo####",
"    ####        ####oooo####        ####oooo####        ####    ",
"    ####        ####oooo####        ####oooo####        ####    ",
"    ####        ####oooo####        ####oooo####        ####    ",
"    oooooooo    ########                ########    oooooooo    ",
"    oooooooo    ########                ########    oooooooo    ",
"    oooooooo    ########                ########    oooooooo    ",
"    ####oooo    ####        ########        ####    oooo####    ",
"    ####oooo    ####        ########        ####    oooo####    ",
"        ####            ################            ####        ",
"        ####            ################            ####        ",
"        ####            ################            ####        ",
"oooo            oooooooo                oooooooo            oooo",
"oooo            oooooooo                oooooooo            oooo",
"oooo####    ####oooooooo                oooooooo####    ####oooo",
"oooo####    ####oooooooo                oooooooo####    ####oooo",
"oooo####    ####oooooooo                oooooooo####    ####oooo"
};
