/* XPM */
static char *result[] = {
/* columns rows colors chars-per-pixel */
"32 64 10 1 ",
"  c #303A20",
". c #345720",
"X c #365B21",
"o c #355E20",
"O c #4A8530",
"+ c #4F8F32",
"@ c #508F34",
"# c #559A36",
"$ c #64B750",
"% c #6CC95B",
/* pixels */
"    ####oo  ..oooo..  oo####    ",
"    ####oo  ..oooo..  oo####    ",
"  oo####$$..        ..$$####oo  ",
"  oo####$$..        ..$$####oo  ",
"  oo%%$$##            ##$$%%oo  ",
"  oo%%$$##            ##$$%%oo  ",
"    oo      ++oooo++      oo    ",
"    oo      ++oooo++      oo    ",
"oo####oo  ooooOOOOoooo  oo####oo",
"oo####oo  ooooOOOOoooo  oo####oo",
"oo##%%%%##oo++oooo++oo##%%%%##oo",
"oo##%%%%##oo++oooo++oo##%%%%##oo",
"    %%##oo  ##%%%%##  oo##%%    ",
"    %%##oo  ##%%%%##  oo##%%    ",
"  oo##oooooo%%%%%%%%oooooo##oo  ",
"  oo##oooooo%%%%%%%%oooooo##oo  ",
"oo######  oo        oo  ######oo",
"oo######  oo        oo  ######oo",
"oo%%##%%  ##  oooo  ##  %%##%%oo",
"oo%%##%%  ##  oooo  ##  %%##%%oo",
"oo%%%%  ##++oo####oo++##  %%%%oo",
"oo%%%%  ##++oo####oo++##  %%%%oo",
"  ##  ##%%oo@@####@@oo%%##  ##  ",
"  ##  ##%%oo@@####@@oo%%##  ##  ",
"  oo    %%XX        XX%%    oo  ",
"  oo    %%XX        XX%%    oo  ",
"  oooo      XXooooXX      oooo  ",
"  oooo      XXooooXX      oooo  ",
"##oo##oo  ##oo####oo##  oo##oo##",
"##oo##oo  ##oo####oo##  oo##oo##",
"####        ##    ##        ####",
"####        ##    ##        ####",
"      oooo    oooo    oooo      ",
"      oooo    oooo    oooo      ",
"    oooooo  oooooooo  oooooo    ",
"    oooooo  oooooooo  oooooo    ",
"    oooo##    ####    ##oooo    ",
"    oooo##    ####    ##oooo    ",
"oo  ####                ####  oo",
"oo  ####                ####  oo",
"oooo        oo    oo        oooo",
"oooo        oo    oo        oooo",
"##oo    oooooo    oooooo    oo##",
"##oo    oooooo    oooooo    oo##",
"  ##    ##oo##    ##oo##    ##  ",
"  ##    ##oo##    ##oo##    ##  ",
"  oooo  ####        ####  oooo  ",
"  oooo  ####        ####  oooo  ",
"  ##oo  ##    ####    ##  oo##  ",
"  ##oo  ##    ####    ##  oo##  ",
"    ##      ########      ##    ",
"    ##      ########      ##    ",
"oo      oooo        oooo      oo",
"oo      oooo        oooo      oo",
"oo##  ##oooo        oooo##  ##oo",
"oo##  ##oooo        oooo##  ##oo",
"      ####    ####    ####      ",
"      ####    ####    ####      ",
"  oooo##oo  ########  oo##oooo  ",
"  oooo##oo  ########  oo##oooo  ",
"    oooo                oooo    ",
"    oooo                oooo    ",
"                                ",
"                                "
};
