/* XPM */
static char *result[] = {
/* columns rows colors chars-per-pixel */
"64 64 17 1 ",
"  c #DD6F2E",
". c #EC7F3A",
"X c #EC7F3B",
"o c #D06B41",
"O c #EC8320",
"+ c #F49A2F",
"@ c #F69D2F",
"# c #EC813A",
"$ c #EE803B",
"% c #F2833A",
"& c #F59732",
"* c #F49A30",
"= c #F69B30",
"- c #FF973D",
"; c #F7A32C",
": c #F8984F",
"> c #F9C755",
/* pixels */
"%%%%oooo%%%%%%%%%%%%oooo%%%%;;;;%%%%----;;;;----oooo%%%%%%%%%%%%",
"%%%%oooo%%%%%%%%%%%%oooo%%%%;;;;%%%%----;;;;----oooo%%%%%%%%%%%%",
"%%%%oooo%%%%%%%%%%%%oooo%%%%;;;;%%%%----;;;;----oooo%%%%%%%%%%%%",
"%%%%oooo%%%%%%%%%%%%oooo%%%%;;;;%%%%----;;;;----oooo%%%%%%%%%%%%",
"%%%%;;;;oooo%%%%%%%%oooo%%%%%%%%%%%%%%%%%%%%;;;;oooo%%%%oooo%%%%",
"%%%%;;;;oooo%%%%%%%%oooo%%%%%%%%%%%%%%%%%%%%;;;;oooo%%%%oooo%%%%",
"%%%%;;;;oooo%%%%%%%%oooo%%%%%%%%%%%%%%%%%%%%;;;;oooo%%%%oooo%%%%",
"%%%%;;;;oooo%%%%%%%%oooo%%%%%%%%%%%%%%%%%%%%;;;;oooo%%%%oooo%%%%",
"%%%%;;;;oooo;;;;%%%%oooo%%%%%%%%----;;;;----XXXXoooo%%%%****%%%%",
"%%%%;;;;oooo;;;;%%%%oooo%%%%%%%%----;;;;----XXXXoooo%%%%****%%%%",
"%%%%;;;;oooo;;;;%%%%oooo%%%%%%%%----;;;;----XXXXoooo%%%%****%%%%",
"%%%%;;;;oooo;;;;%%%%oooo%%%%%%%%----;;;;----XXXXoooo%%%%****%%%%",
"%%%%%%%%;;;;%%%%%%%%%%%%%%%%;;;;%%%%%%%%;;;;oooo####====%%%%%%%%",
"%%%%%%%%;;;;%%%%%%%%%%%%%%%%;;;;%%%%%%%%;;;;oooo####====%%%%%%%%",
"%%%%%%%%;;;;%%%%%%%%%%%%%%%%;;;;%%%%%%%%;;;;oooo####====%%%%%%%%",
"%%%%%%%%;;;;%%%%%%%%%%%%%%%%;;;;%%%%%%%%;;;;oooo####====%%%%%%%%",
"oooo    ;;;;%%%%%%%%    oooo....%%%%oooo;;;;oooo%%%%%%%%%%%%%%%%",
"oooo    ;;;;%%%%%%%%    oooo....%%%%oooo;;;;oooo%%%%%%%%%%%%%%%%",
"oooo    ;;;;%%%%%%%%    oooo....%%%%oooo;;;;oooo%%%%%%%%%%%%%%%%",
"oooo    ;;;;%%%%%%%%    oooo....%%%%oooo;;;;oooo%%%%%%%%%%%%%%%%",
"----oooo%%%%%%%%;;;;oooo$$$$oooo%%%%%%%%oooo%%%%%%%%;;;;----;;;;",
"----oooo%%%%%%%%;;;;oooo$$$$oooo%%%%%%%%oooo%%%%%%%%;;;;----;;;;",
"----oooo%%%%%%%%;;;;oooo$$$$oooo%%%%%%%%oooo%%%%%%%%;;;;----;;;;",
"----oooo%%%%%%%%;;;;oooo$$$$oooo%%%%%%%%oooo%%%%%%%%;;;;----;;;;",
";;;;oooo%%%%%%%%%%%%oooo;;;;%%%%%%%%%%%%oooo%%%%%%%%%%%%%%%%%%%%",
";;;;oooo%%%%%%%%%%%%oooo;;;;%%%%%%%%%%%%oooo%%%%%%%%%%%%%%%%%%%%",
";;;;oooo%%%%%%%%%%%%oooo;;;;%%%%%%%%%%%%oooo%%%%%%%%%%%%%%%%%%%%",
";;;;oooo%%%%%%%%%%%%oooo;;;;%%%%%%%%%%%%oooo%%%%%%%%%%%%%%%%%%%%",
";;;;%%%%%%%%%%%%%%%%%%%%;;;;%%%%;;;;----%%%%XXXXoooo%%%%%%%%%%%%",
";;;;%%%%%%%%%%%%%%%%%%%%;;;;%%%%;;;;----%%%%XXXXoooo%%%%%%%%%%%%",
";;;;%%%%%%%%%%%%%%%%%%%%;;;;%%%%;;;;----%%%%XXXXoooo%%%%%%%%%%%%",
";;;;%%%%%%%%%%%%%%%%%%%%;;;;%%%%;;;;----%%%%XXXXoooo%%%%%%%%%%%%",
"%%%%%%%%%%%%@@@@%%%%@@@@oooo%%%%%%%%;;;;%%%%oooo$$$$----;;;;----",
"%%%%%%%%%%%%@@@@%%%%@@@@oooo%%%%%%%%;;;;%%%%oooo$$$$----;;;;----",
"%%%%%%%%%%%%@@@@%%%%@@@@oooo%%%%%%%%;;;;%%%%oooo$$$$----;;;;----",
"%%%%%%%%%%%%@@@@%%%%@@@@oooo%%%%%%%%;;;;%%%%oooo$$$$----;;;;----",
"%%%%====%%%%%%%%&&&&%%%%;;;;oooo%%%%;;;;%%%%oooo%%%%;;;;%%%%OOOO",
"%%%%====%%%%%%%%&&&&%%%%;;;;oooo%%%%;;;;%%%%oooo%%%%;;;;%%%%OOOO",
"%%%%====%%%%%%%%&&&&%%%%;;;;oooo%%%%;;;;%%%%oooo%%%%;;;;%%%%OOOO",
"%%%%====%%%%%%%%&&&&%%%%;;;;oooo%%%%;;;;%%%%oooo%%%%;;;;%%%%OOOO",
"    %%%%++++%%%%oooo%%%%;;;;%%%%%%%%oooo%%%%%%%%%%%%;;;;OOOO>>>>",
"    %%%%++++%%%%oooo%%%%;;;;%%%%%%%%oooo%%%%%%%%%%%%;;;;OOOO>>>>",
"    %%%%++++%%%%oooo%%%%;;;;%%%%%%%%oooo%%%%%%%%%%%%;;;;OOOO>>>>",
"    %%%%++++%%%%oooo%%%%;;;;%%%%%%%%oooo%%%%%%%%%%%%;;;;OOOO>>>>",
"oooo%%%%%%%%oooo    %%%%%%%%oooo%%%%%%%%OOOO%%%%%%%%OOOO::::::::",
"oooo%%%%%%%%oooo    %%%%%%%%oooo%%%%%%%%OOOO%%%%%%%%OOOO::::::::",
"oooo%%%%%%%%oooo    %%%%%%%%oooo%%%%%%%%OOOO%%%%%%%%OOOO::::::::",
"oooo%%%%%%%%oooo    %%%%%%%%oooo%%%%%%%%OOOO%%%%%%%%OOOO::::::::",
"oooo%%%%%%%%%%%%%%%%====%%%%%%%%%%%%OOOO::::OOOO;;;;ooooOOOOOOOO",
"oooo%%%%%%%%%%%%%%%%====%%%%%%%%%%%%OOOO::::OOOO;;;;ooooOOOOOOOO",
"oooo%%%%%%%%%%%%%%%%====%%%%%%%%%%%%OOOO::::OOOO;;;;ooooOOOOOOOO",
"oooo%%%%%%%%%%%%%%%%====%%%%%%%%%%%%OOOO::::OOOO;;;;ooooOOOOOOOO",
"----%%%%;;;;----++++%%%%%%%%%%%%OOOO>>>>::::OOOO%%%%oooooooooooo",
"----%%%%;;;;----++++%%%%%%%%%%%%OOOO>>>>::::OOOO%%%%oooooooooooo",
"----%%%%;;;;----++++%%%%%%%%%%%%OOOO>>>>::::OOOO%%%%oooooooooooo",
"----%%%%;;;;----++++%%%%%%%%%%%%OOOO>>>>::::OOOO%%%%oooooooooooo",
";;;;%%%%%%%%;;;;%%%%%%%%%%%%%%%%OOOO>>>>OOOOoooo%%%%oooo%%%%%%%%",
";;;;%%%%%%%%;;;;%%%%%%%%%%%%%%%%OOOO>>>>OOOOoooo%%%%oooo%%%%%%%%",
";;;;%%%%%%%%;;;;%%%%%%%%%%%%%%%%OOOO>>>>OOOOoooo%%%%oooo%%%%%%%%",
";;;;%%%%%%%%;;;;%%%%%%%%%%%%%%%%OOOO>>>>OOOOoooo%%%%oooo%%%%%%%%",
";;;;%%%%    ;;;;        oooo%%%%OOOOOOOOoooooooo----;;;;----%%%%",
";;;;%%%%    ;;;;        oooo%%%%OOOOOOOOoooooooo----;;;;----%%%%",
";;;;%%%%    ;;;;        oooo%%%%OOOOOOOOoooooooo----;;;;----%%%%",
";;;;%%%%    ;;;;        oooo%%%%OOOOOOOOoooooooo----;;;;----%%%%"
};
