/* XPM */
static char *result[] = {
/* columns rows colors chars-per-pixel */
"60 64 9 1 ",
"  c #A90907",
". c #88163C",
"X c #E60E0E",
"o c #F29D45",
"O c #FDE56C",
"+ c #F9A9C5",
"@ c #FFE6EE",
"# c white",
"$ c None",
/* pixels */
"$$$$$$$$$$$$$$$$$$$$$$$$$$$$$$$$$$$$$$$$$$$$$$$$$$$$$$$$$$$$",
"$$$$$$$$$$$$$$$$$$$$$$$$$$$$$$$$$$$$$$$$$$$$$$$$$$$$$$$$$$$$",
"$$$$$$$$$$$$$$$$$$$$$$$$$$$$$$$$$$$$$$$$$$$$$$$$$$$$$$$$$$$$",
"$$$$$$$$$$$$$$$$$$$$$$$..............$$$$$$$$$$$$$$$$$$$$$$$",
"$$$$$$$$$$$$$$$$$$$$$$$..............$$$$$$$$$$$$$$$$$$$$$$$",
"$$$$$$$$$$$$$$$$$$$$$$$..............$$$$$$$$$$$$$$$$$$$$$$$",
"$$$$$$$$$$$$$$$$$$$$$$$..............$$$$$$$$$$$$$$$$$$$$$$$",
"$$$$$$$$$$$$$$$$$   ...@@@@######@@@@...   $$$$$$$$$$$$$$$$$",
"$$$$$$$$$$$$$$$$$   ...@@@@######@@@@...   $$$$$$$$$$$$$$$$$",
"$$$$$$$$$$$$$$$$$   ...@@@@######@@@@...   $$$$$$$$$$$$$$$$$",
"$$$$$$$$$$...    XXXXXX    XXXXXX@@@@XXXXXX    ...$$$$$$$$$$",
"$$$$$$$$$$...    XXXXXX    XXXXXX@@@@XXXXXX    ...$$$$$$$$$$",
"$$$$$$$$$$...    XXXXXX    XXXXXX@@@@XXXXXX    ...$$$$$$$$$$",
"$$$.......@@@@@@@XXXXXXXXXXoooOOOXXXXXXXXXX@@@@@@@.......$$$",
"$$$.......@@@@@@@XXXXXXXXXXoooOOOXXXXXXXXXX@@@@@@@.......$$$",
"$$$.......@@@@@@@XXXXXXXXXXoooOOOXXXXXXXXXX@@@@@@@.......$$$",
"$$$.......@@@@@@@XXXXXXXXXXoooOOOXXXXXXXXXX@@@@@@@.......$$$",
"...@@@@######@@@@@@@       oooooo       @@@##########++++...",
"...@@@@######@@@@@@@       oooooo       @@@##########++++...",
"...@@@@######@@@@@@@       oooooo       @@@##########++++...",
"...++++@@@#######@@@XXX       XXXXXXXXXXXXX@@@@######@@@@...",
"...++++@@@#######@@@XXX       XXXXXXXXXXXXX@@@@######@@@@...",
"...++++@@@#######@@@XXX       XXXXXXXXXXXXX@@@@######@@@@...",
"...++++@@@#######@@@XXX       XXXXXXXXXXXXX@@@@######@@@@...",
"...++++++++++@@@@XXXXXXXXXX@@@@@@@@@@XXXXXXXXXX@@@@@@@@@@...",
"...++++++++++@@@@XXXXXXXXXX@@@@@@@@@@XXXXXXXXXX@@@@@@@@@@...",
"...++++++++++@@@@XXXXXXXXXX@@@@@@@@@@XXXXXXXXXX@@@@@@@@@@...",
"...++++++++++       XXX@@@@##########@@@XXX    @@@@@@@@@@...",
"...++++++++++       XXX@@@@##########@@@XXX    @@@@@@@@@@...",
"...++++++++++       XXX@@@@##########@@@XXX    @@@@@@@@@@...",
"...++++++++++       +++++++@@@###@@@@@@@       @@@@@@@@@@...",
"...++++++++++       +++++++@@@###@@@@@@@       @@@@@@@@@@...",
"...++++++++++       +++++++@@@###@@@@@@@       @@@@@@@@@@...",
"...++++++++++       +++++++@@@###@@@@@@@       @@@@@@@@@@...",
"...++++++++++       ++++++++++@@@@@@@@@@       @@@@@@@@@@...",
"...++++++++++       ++++++++++@@@@@@@@@@       @@@@@@@@@@...",
"...++++++++++       ++++++++++@@@@@@@@@@       @@@@@@@@@@...",
"...++++++++++       ++++++++++@@@@@@@@@@       @@@@@@@@@@...",
"...++++++++++       ++++++++++@@@@@@@@@@       @@@@@@@@@@...",
"...++++++++++       ++++++++++@@@@@@@@@@       @@@@@@@@@@...",
"...++++++++++       ++++++++++@@@@@@@@@@       @@@@@@@@@@...",
"...++++++++++       ++++++++++@@@@@@@@@@       @@@@@@@@@@...",
"...++++++++++       ++++++++++@@@@@@@@@@       @@@@@@@@@@...",
"...++++++++++       ++++++++++@@@@@@@@@@       @@@@@@@@@@...",
"$$$....++++++       ++++++++++@@@@@@@@@@       @@@@@@....$$$",
"$$$....++++++       ++++++++++@@@@@@@@@@       @@@@@@....$$$",
"$$$....++++++       ++++++++++@@@@@@@@@@       @@@@@@....$$$",
"$$$$$$$...+++       ++++++++++@@@@@@@@@@       +++...$$$$$$$",
"$$$$$$$...+++       ++++++++++@@@@@@@@@@       +++...$$$$$$$",
"$$$$$$$...+++       ++++++++++@@@@@@@@@@       +++...$$$$$$$",
"$$$$$$$...+++       ++++++++++@@@@@@@@@@       +++...$$$$$$$",
"$$$$$$$$$$.......   ++++++++++@@@@@@@+++   .......$$$$$$$$$$",
"$$$$$$$$$$.......   ++++++++++@@@@@@@+++   .......$$$$$$$$$$",
"$$$$$$$$$$.......   ++++++++++@@@@@@@+++   .......$$$$$$$$$$",
"$$$$$$$$$$$$$$$$$......++++++++++++++......$$$$$$$$$$$$$$$$$",
"$$$$$$$$$$$$$$$$$......++++++++++++++......$$$$$$$$$$$$$$$$$",
"$$$$$$$$$$$$$$$$$......++++++++++++++......$$$$$$$$$$$$$$$$$",
"$$$$$$$$$$$$$$$$$$$$$$$..............$$$$$$$$$$$$$$$$$$$$$$$",
"$$$$$$$$$$$$$$$$$$$$$$$..............$$$$$$$$$$$$$$$$$$$$$$$",
"$$$$$$$$$$$$$$$$$$$$$$$..............$$$$$$$$$$$$$$$$$$$$$$$",
"$$$$$$$$$$$$$$$$$$$$$$$..............$$$$$$$$$$$$$$$$$$$$$$$",
"$$$$$$$$$$$$$$$$$$$$$$$$$$$$$$$$$$$$$$$$$$$$$$$$$$$$$$$$$$$$",
"$$$$$$$$$$$$$$$$$$$$$$$$$$$$$$$$$$$$$$$$$$$$$$$$$$$$$$$$$$$$",
"$$$$$$$$$$$$$$$$$$$$$$$$$$$$$$$$$$$$$$$$$$$$$$$$$$$$$$$$$$$$"
};
