/* XPM */
static char *result[] = {
/* columns rows colors chars-per-pixel */
"64 64 9 1 ",
"  c #A81110",
". c #871C3E",
"X c #E51616",
"o c #F29C47",
"O c #FDE46C",
"+ c #F9A7C4",
"@ c #FFE5ED",
"# c white",
"$ c None",
/* pixels */
"$$$$$$$$$$$$$$$$$$$$$$$$$$$$$$$$$$$$$$$$$$$$$$$$$$$$$$$$$$$$$$$$",
"$$$$$$$$$$$$$$$$$$$$$$$$$$$$$$$$$$$$$$$$$$$$$$$$$$$$$$$$$$$$$$$$",
"$$$$$$$$$$$$$$$$$$$$$$$$$$$$$$$$$$$$$$$$$$$$$$$$$$$$$$$$$$$$$$$$",
"$$$$$$$$$$$$$$$$$$$$$$$$$$$$$$$$$$$$$$$$$$$$$$$$$$$$$$$$$$$$$$$$",
"$$$$$$$$$$$$$$$$$$$$$$$$$$$$$$$$$$$$$$$$$$$$$$$$$$$$$$$$$$$$$$$$",
"$$$$$$$$$$$$$$$$$$$$$$$$$$$$$$$$$$$$$$$$$$$$$$$$$$$$$$$$$$$$$$$$",
"$$$$$$$$$$$$$$$$$$$$$$$$$$$$$$$$$$$$$$$$$$$$$$$$$$$$$$$$$$$$$$$$",
"$$$$$$$$$$$$$$$$$$$$$$$$$$$$$$$$$$$$$$$$$$$$$$$$$$$$$$$$$$$$$$$$",
"$$$$$$$$$$$$$$$$$$$$$$$$$$$$$$$$$$$$$$$$$$$$$$$$$$$$$$$$$$$$$$$$",
"$$$$$$$$$$$$$$$$$$$$$$$$$$$$$$$$$$$$$$$$$$$$$$$$$$$$$$$$$$$$$$$$",
"$$$$$$$$$$$$$$$$$$$$$$$$$$$$$$$$$$$$$$$$$$$$$$$$$$$$$$$$$$$$$$$$",
"$$$$$$$$$$$$$$$$$$$$$$$$$$$$$$$$$$$$$$$$$$$$$$$$$$$$$$$$$$$$$$$$",
"$$$$$$$$$$$$$$$$$$$$$$$$$$$$$$$$$$$$$$$$$$$$$$$$$$$$$$$$$$$$$$$$",
"$$$$$$$$$$$$$$$$$$$$$$$$$$$$........$$$$$$$$$$$$$$$$$$$$$$$$$$$$",
"$$$$$$$$$$$$$$$$$$$$$$$$$$$$........$$$$$$$$$$$$$$$$$$$$$$$$$$$$",
"$$$$$$$$$$$$$$$$$$$$$$$  ...@@####@@...  $$$$$$$$$$$$$$$$$$$$$$$",
"$$$$$$$$$$$$$$$$$$$$$$$  ...@@####@@...  $$$$$$$$$$$$$$$$$$$$$$$",
"$$$$$$$$$$$$$$$$$$$$$$$  ...@@####@@...  $$$$$$$$$$$$$$$$$$$$$$$",
"$$$$$$$$$$$$$$$$$$$..  XXXXX  XXXX@@XXXXX  ..$$$$$$$$$$$$$$$$$$$",
"$$$$$$$$$$$$$$$$$$$..  XXXXX  XXXX@@XXXXX  ..$$$$$$$$$$$$$$$$$$$",
"$$$$$$$$$$$$$$.....@@@@XXXXXXXooOOXXXXXXX@@@@.....$$$$$$$$$$$$$$",
"$$$$$$$$$$$$$$.....@@@@XXXXXXXooOOXXXXXXX@@@@.....$$$$$$$$$$$$$$",
"$$$$$$$$$$$$..@@#####@@@@     oooo     @@#######++..$$$$$$$$$$$$",
"$$$$$$$$$$$$..@@#####@@@@     oooo     @@#######++..$$$$$$$$$$$$",
"$$$$$$$$$$$$..++@@@####@@XXX    XXXXXXXXX@@#####@@..$$$$$$$$$$$$",
"$$$$$$$$$$$$..++@@@####@@XXX    XXXXXXXXX@@#####@@..$$$$$$$$$$$$",
"$$$$$$$$$$$$..+++++++@@XXXXXXX@@@@@@XXXXXXX@@@@@@@..$$$$$$$$$$$$",
"$$$$$$$$$$$$..+++++++@@XXXXXXX@@@@@@XXXXXXX@@@@@@@..$$$$$$$$$$$$",
"$$$$$$$$$$$$..+++++++@@XXXXXXX@@@@@@XXXXXXX@@@@@@@..$$$$$$$$$$$$",
"$$$$$$$$$$$$..+++++++    XXX@@######@@@XX  @@@@@@@..$$$$$$$$$$$$",
"$$$$$$$$$$$$..+++++++    XXX@@######@@@XX  @@@@@@@..$$$$$$$$$$$$",
"$$$$$$$$$$$$..+++++++    +++++@@##@@@@@    @@@@@@@..$$$$$$$$$$$$",
"$$$$$$$$$$$$..+++++++    +++++@@##@@@@@    @@@@@@@..$$$$$$$$$$$$",
"$$$$$$$$$$$$..+++++++    +++++++@@@@@@@    @@@@@@@..$$$$$$$$$$$$",
"$$$$$$$$$$$$..+++++++    +++++++@@@@@@@    @@@@@@@..$$$$$$$$$$$$",
"$$$$$$$$$$$$..+++++++    +++++++@@@@@@@    @@@@@@@..$$$$$$$$$$$$",
"$$$$$$$$$$$$..+++++++    +++++++@@@@@@@    @@@@@@@..$$$$$$$$$$$$",
"$$$$$$$$$$$$..+++++++    +++++++@@@@@@@    @@@@@@@..$$$$$$$$$$$$",
"$$$$$$$$$$$$..+++++++    +++++++@@@@@@@    @@@@@@@..$$$$$$$$$$$$",
"$$$$$$$$$$$$..+++++++    +++++++@@@@@@@    @@@@@@@..$$$$$$$$$$$$",
"$$$$$$$$$$$$$$..+++++    +++++++@@@@@@@    @@@@@..$$$$$$$$$$$$$$",
"$$$$$$$$$$$$$$..+++++    +++++++@@@@@@@    @@@@@..$$$$$$$$$$$$$$",
"$$$$$$$$$$$$$$$$...++    +++++++@@@@@@@    ++...$$$$$$$$$$$$$$$$",
"$$$$$$$$$$$$$$$$...++    +++++++@@@@@@@    ++...$$$$$$$$$$$$$$$$",
"$$$$$$$$$$$$$$$$$$$....  +++++++@@@@+++  ....$$$$$$$$$$$$$$$$$$$",
"$$$$$$$$$$$$$$$$$$$....  +++++++@@@@+++  ....$$$$$$$$$$$$$$$$$$$",
"$$$$$$$$$$$$$$$$$$$$$$$.....++++++++.....$$$$$$$$$$$$$$$$$$$$$$$",
"$$$$$$$$$$$$$$$$$$$$$$$.....++++++++.....$$$$$$$$$$$$$$$$$$$$$$$",
"$$$$$$$$$$$$$$$$$$$$$$$.....++++++++.....$$$$$$$$$$$$$$$$$$$$$$$",
"$$$$$$$$$$$$$$$$$$$$$$$$$$$$........$$$$$$$$$$$$$$$$$$$$$$$$$$$$",
"$$$$$$$$$$$$$$$$$$$$$$$$$$$$........$$$$$$$$$$$$$$$$$$$$$$$$$$$$",
"$$$$$$$$$$$$$$$$$$$$$$$$$$$$$$$$$$$$$$$$$$$$$$$$$$$$$$$$$$$$$$$$",
"$$$$$$$$$$$$$$$$$$$$$$$$$$$$$$$$$$$$$$$$$$$$$$$$$$$$$$$$$$$$$$$$",
"$$$$$$$$$$$$$$$$$$$$$$$$$$$$$$$$$$$$$$$$$$$$$$$$$$$$$$$$$$$$$$$$",
"$$$$$$$$$$$$$$$$$$$$$$$$$$$$$$$$$$$$$$$$$$$$$$$$$$$$$$$$$$$$$$$$",
"$$$$$$$$$$$$$$$$$$$$$$$$$$$$$$$$$$$$$$$$$$$$$$$$$$$$$$$$$$$$$$$$",
"$$$$$$$$$$$$$$$$$$$$$$$$$$$$$$$$$$$$$$$$$$$$$$$$$$$$$$$$$$$$$$$$",
"$$$$$$$$$$$$$$$$$$$$$$$$$$$$$$$$$$$$$$$$$$$$$$$$$$$$$$$$$$$$$$$$",
"$$$$$$$$$$$$$$$$$$$$$$$$$$$$$$$$$$$$$$$$$$$$$$$$$$$$$$$$$$$$$$$$",
"$$$$$$$$$$$$$$$$$$$$$$$$$$$$$$$$$$$$$$$$$$$$$$$$$$$$$$$$$$$$$$$$",
"$$$$$$$$$$$$$$$$$$$$$$$$$$$$$$$$$$$$$$$$$$$$$$$$$$$$$$$$$$$$$$$$",
"$$$$$$$$$$$$$$$$$$$$$$$$$$$$$$$$$$$$$$$$$$$$$$$$$$$$$$$$$$$$$$$$",
"$$$$$$$$$$$$$$$$$$$$$$$$$$$$$$$$$$$$$$$$$$$$$$$$$$$$$$$$$$$$$$$$",
"$$$$$$$$$$$$$$$$$$$$$$$$$$$$$$$$$$$$$$$$$$$$$$$$$$$$$$$$$$$$$$$$"
};
