/* XPM */
static char *result[] = {
/* columns rows colors chars-per-pixel */
"39 64 34 1 ",
"  c #002035",
". c #5B0327",
"X c #033E5B",
"o c #012473",
"O c #720078",
"+ c #970034",
"@ c #A61427",
"# c #AC2931",
"$ c #D14735",
"% c #FF7640",
"& c #EE7461",
"* c #FAB604",
"= c #F6AD13",
"- c #FFCA00",
"; c #FFFC35",
": c #F98241",
"> c #FFA87E",
", c #00298F",
"< c #23798A",
"1 c #1A5BDC",
"2 c #2479F4",
"3 c #B631B0",
"4 c #D965AE",
"5 c #0B8CA0",
"6 c #0C97AB",
"7 c #2AA0F7",
"8 c #56D2FB",
"9 c #FBA785",
"0 c #FFC9AA",
"q c #FFD4A4",
"w c #FF98D4",
"e c #89C1E9",
"r c #EDF4FF",
"t c None",
/* pixels */
"ttttttttttttttt##############tttttttttt",
"ttttttttttttttt##############tttttttttt",
"tttttttttttt###%%%%%%%%%%%%%%###ttttttt",
"tttttttttttt###%%%%%%%%%%%%%%###ttttttt",
"tttttttttttt###%%%%%%%%%%%%%%###ttttttt",
"tttttttttt##-----------------%%%##ttttt",
"tttttttttt##-----------------%%%##ttttt",
"ttttttt###--%%%$$----------;;---##ttttt",
"ttttttt###--%%%$$----------;;---##ttttt",
"ttttttt###--%%%$$----------;;---##ttttt",
"ttttt##---$$%%%$$%%%;;;;;;;;;;;;%%###tt",
"ttttt##---$$%%%$$%%%;;;;;;;;;;;;%%###tt",
"ttttt##---$$99999999%%;;;;;-----%%###tt",
"ttttt##---$$99999999%%;;;;;-----%%###tt",
"ttttt##---$$99999999%%;;;;;-----%%###tt",
"ttttt##:::@@qqq.....99%%--------%%###tt",
"ttttt##:::@@qqq.....99%%--------%%###tt",
"ttttt##:::@@qqqooeee..%%--------$$###tt",
"ttttt##:::@@qqqooeee..%%--------$$###tt",
"ttttt##:::@@qqqooeee..%%--------$$###tt",
"ttttttt###qqqqq77rrr99$$-----%%%$$###tt",
"ttttttt###qqqqq77rrr99$$-----%%%$$###tt",
"ttttttt###@@qqqqqqqqqq$$-----%%%##ttttt",
"ttttttt###@@qqqqqqqqqq$$-----%%%##ttttt",
"ttttttt###@@qqqqqqqqqq$$-----%%%##ttttt",
"tttttttttt##@@@qqqqqqq$$;;;--%%%##ttttt",
"tttttttttt##@@@qqqqqqq$$;;;--%%%##ttttt",
"ttttttt###%%###@@@@@&&$$;;;;;***%%###tt",
"ttttttt###%%###@@@@@&&$$;;;;;***%%###tt",
"ttttttt###%%###@@@@@&&$$;;;;;***%%###tt",
"ttttttt###--###,,qqqrrrr%%%;;%%%==%%%##",
"ttttttt###--###,,qqqrrrr%%%;;%%%==%%%##",
"ttttttt###%%###rrrrr,,,,%%%--***%%###tt",
"ttttttt###%%###rrrrr,,,,%%%--***%%###tt",
"tttttttttt##,,,222228877000%%%%%##ttttt",
"tttttttttt##,,,222228877000%%%%%##ttttt",
"tttttttttt##,,,222228877000%%%%%##ttttt",
"ttttttt###%%,,,112221111@@@00-----###tt",
"ttttttt###%%,,,112221111@@@00-----###tt",
"ttttt##%%%$$000:::::++++@@@00@@@%%%%%##",
"ttttt##%%%$$000:::::++++@@@00@@@%%%%%##",
"ttttt##%%%$$000:::::++++@@@00@@@%%%%%##",
"ttttttt###@@&&&,,111110000000@@@#####tt",
"ttttttt###@@&&&,,111110000000@@@#####tt",
"ttttttttttttOOO33333OO@@000&&@@@ttttttt",
"ttttttttttttOOO33333OO@@000&&@@@ttttttt",
"ttttttttttttOOO33333OO@@000&&@@@ttttttt",
"ttttttttttttOOO44wwwww44@@@@@tttttttttt",
"ttttttttttttOOO44wwwww44@@@@@tttttttttt",
"ttttttttttttOOOOOOOOOOOOOOOOOtttttttttt",
"ttttttttttttOOOOOOOOOOOOOOOOOtttttttttt",
"ttttttttttttOOOOOOOOOOOOOOOOOtttttttttt",
"ttttttttttttttt@@>>>$$>>@@@tttttttttttt",
"ttttttttttttttt@@>>>$$>>@@@tttttttttttt",
"ttttttttttttttt@@qqq&&qq@@@tttttttttttt",
"ttttttttttttttt@@qqq&&qq@@@tttttttttttt",
"ttttttttttttttt@@qqq&&qq@@@tttttttttttt",
"ttttttttttttttt@@rrr&&rr@@@tttttttttttt",
"ttttttttttttttt@@rrr&&rr@@@tttttttttttt",
"ttttttttttttttt  555XX55   tttttttttttt",
"ttttttttttttttt  555XX55   tttttttttttt",
"ttttttttttttttt  555XX55   tttttttttttt",
"tttttttttttt   66XXX<<XX   tttttttttttt",
"tttttttttttt   66XXX<<XX   tttttttttttt"
};
