/* XPM */
static char *result[] = {
/* columns rows colors chars-per-pixel */
"52 64 34 1 ",
"  c #002035",
". c #5B0327",
"X c #033E5B",
"o c #012473",
"O c #720078",
"+ c #970034",
"@ c #A61427",
"# c #AC2931",
"$ c #D14735",
"% c #FF7640",
"& c #EE7461",
"* c #F7AF07",
"= c #FAB604",
"- c #FAB907",
"; c #FAB40C",
": c #FFCA00",
"> c #FFFC35",
", c #F98241",
"< c #FFA87E",
"1 c #00298F",
"2 c #1A5BDC",
"3 c #2479F4",
"4 c #B631B0",
"5 c #D965AE",
"6 c #0C97AB",
"7 c #2AA0F7",
"8 c #56D2FB",
"9 c #FBA785",
"0 c #FFC9AA",
"q c #FFD4A4",
"w c #FF98D4",
"e c #89C1E9",
"r c #EDF4FF",
"t c None",
/* pixels */
"ttttttttttttttttttttttttt###############tttttttttttt",
"ttttttttttttttttttttttttt###############tttttttttttt",
"ttttttttttttttttttttttt##%%%%%%%%%%%%%%%##tttttttttt",
"ttttttttttttttttttttttt##%%%%%%%%%%%%%%%##tttttttttt",
"ttttttttttttttttttttttt##%%%%%%%%%%%%%%%##tttttttttt",
"tttttttttttttttttttt###%%:::::::::::::::%%###ttttttt",
"tttttttttttttttttttt###%%:::::::::::::::%%###ttttttt",
"tttttttttttttttttttt###>>:::$$:::$$:::::>>###ttttttt",
"tttttttttttttttttttt###>>:::$$:::$$:::::>>###ttttttt",
"tttttttttttttttttttt###>>:::$$:::$$:::::>>###ttttttt",
"tttttttttttttttttt##%%%>>>>>$$,,,$$$$>>>>>%%%##ttttt",
"tttttttttttttttttt##%%%>>>>>$$,,,$$$$>>>>>%%%##ttttt",
"tttttttttttttttttt##:::>>%%%999999999%%%>>:::##ttttt",
"tttttttttttttttttt##:::>>%%%999999999%%%>>:::##ttttt",
"tttttttttttttttttt##:::>>%%%999999999%%%>>:::##ttttt",
"ttttttttttttttt###%%:::::.....qqqqq.....:::::%%###tt",
"ttttttttttttttt###%%:::::.....qqqqq.....:::::%%###tt",
"ttttttttttttttt###%%:::..eeeooqqqqqooeee..:::%%###tt",
"ttttttttttttttt###%%:::..eeeooqqqqqooeee..:::%%###tt",
"ttttttttttttttt###%%:::..eeeooqqqqqooeee..:::%%###tt",
"ttttttttttttttt###:::::$$rrr77qqqqq77rrr$$:::::###tt",
"ttttttttttttttt###:::::$$rrr77qqqqq77rrr$$:::::###tt",
"ttttttttttttttt###%%>>>$$000qqqqqqqqq000$$>>>%%###tt",
"ttttttttttttttt###%%>>>$$000qqqqqqqqq000$$>>>%%###tt",
"ttttttttttttttt###%%>>>$$000qqqqqqqqq000$$>>>%%###tt",
"tttttttttttttttttt##>>>%%@@@@@&&&&&@@@@@%%>>>##ttttt",
"tttttttttttttttttt##>>>%%@@@@@&&&&&@@@@@%%>>>##ttttt",
"ttttttttttttttt###%%---rr&&&&&00000&&&&&rr---%%###tt",
"ttttttttttttttt###%%---rr&&&&&00000&&&&&rr---%%###tt",
"ttttttttttttttt###%%---rr&&&&&00000&&&&&rr---%%###tt",
"ttttttttttttt##%%%;;%%%99rrrrr00000rrrrr99%%%;;%%%##",
"ttttttttttttt##%%%;;%%%99rrrrr00000rrrrr99%%%;;%%%##",
"ttttttttttttttt###::>>>>>11111rrrrr11111>>>>>::###tt",
"ttttttttttttttt###::>>>>>11111rrrrr11111>>>>>::###tt",
"ttttttttttttt**%%%$$%%%qq777883333388777qq%%%$$%%%**",
"ttttttttttttt**%%%$$%%%qq777883333388777qq%%%$$%%%**",
"ttttttttttttt**%%%$$%%%qq777883333388777qq%%%$$%%%**",
"ttttttttttttt%%===::,,,qq111223333322111qq%%%%%===%%",
"ttttttttttttt%%===::,,,qq111223333322111qq%%%%%===%%",
"ttttttttttttt##%%%@@qqqqq&&&++,,,,,++&&&qqqqq@@%%%##",
"ttttttttttttt##%%%@@qqqqq&&&++,,,,,++&&&qqqqq@@%%%##",
"ttttttttttttt##%%%@@qqqqq&&&++,,,,,++&&&qqqqq@@%%%##",
"ttttttttttttttt###@@qqq&&111222222222111&&qqq@@###tt",
"ttttttttttttttt###@@qqq&&111222222222111&&qqq@@###tt",
"tttttttttttttttttttt@@@@@444555555555444@@@@@ttttttt",
"tttttttttttttttttttt@@@@@444555555555444@@@@@ttttttt",
"tttttttttttttttttttt@@@@@444555555555444@@@@@ttttttt",
"tttttttttttttttttttttttOO555wwwwwwwww555OOtttttttttt",
"tttttttttttttttttttttttOO555wwwwwwwww555OOtttttttttt",
"tttttttttttttttttttttttttOOOOOOOOOOOOOOOtttttttttttt",
"tttttttttttttttttttttttttOOOOOOOOOOOOOOOtttttttttttt",
"tttttttttttttttttttttttttOOOOOOOOOOOOOOOtttttttttttt",
"ttttttttttttttttttttttttt@@@<<$$$$$<<@@@tttttttttttt",
"ttttttttttttttttttttttttt@@@<<$$$$$<<@@@tttttttttttt",
"ttttttttttttttttttttttttt@@@qq&&&&&qq@@@tttttttttttt",
"ttttttttttttttttttttttttt@@@qq&&&&&qq@@@tttttttttttt",
"ttttttttttttttttttttttttt@@@qq&&&&&qq@@@tttttttttttt",
"ttttttttttttttttttttttttt@@@rr&&&&&rr@@@tttttttttttt",
"ttttttttttttttttttttttttt@@@rr&&&&&rr@@@tttttttttttt",
"tttttttttttttttttttttttttXXX66XXXXX66XXXtttttttttttt",
"tttttttttttttttttttttttttXXX66XXXXX66XXXtttttttttttt",
"tttttttttttttttttttttttttXXX66XXXXX66XXXtttttttttttt",
"tttttttttttttttttttttttttttt         ttttttttttttttt",
"tttttttttttttttttttttttttttt         ttttttttttttttt"
};
