/* XPM */
static char *result[] = {
/* columns rows colors chars-per-pixel */
"39 64 34 1 ",
"  c #002035",
". c #5B0327",
"X c #033E5B",
"o c #012473",
"O c #720078",
"+ c #970034",
"@ c #A61427",
"# c #AC2931",
"$ c #D14735",
"% c #FF7640",
"& c #EE7461",
"* c #F7AF07",
"= c #FAB604",
"- c #FAB907",
"; c #FAB40C",
": c #FFCA00",
"> c #FFFC35",
", c #F98241",
"< c #FFA87E",
"1 c #00298F",
"2 c #1A5BDC",
"3 c #2479F4",
"4 c #B631B0",
"5 c #D965AE",
"6 c #0C97AB",
"7 c #2AA0F7",
"8 c #56D2FB",
"9 c #FBA785",
"0 c #FFC9AA",
"q c #FFD4A4",
"w c #FF98D4",
"e c #89C1E9",
"r c #EDF4FF",
"t c None",
/* pixels */
"tttttttttttt###############tttttttttttt",
"tttttttttttt###############tttttttttttt",
"tttttttttt##%%%%%%%%%%%%%%%##tttttttttt",
"tttttttttt##%%%%%%%%%%%%%%%##tttttttttt",
"tttttttttt##%%%%%%%%%%%%%%%##tttttttttt",
"ttttttt###%%:::::::::::::::%%###ttttttt",
"ttttttt###%%:::::::::::::::%%###ttttttt",
"ttttttt###>>:::$$:::$$:::::>>###ttttttt",
"ttttttt###>>:::$$:::$$:::::>>###ttttttt",
"ttttttt###>>:::$$:::$$:::::>>###ttttttt",
"ttttt##%%%>>>>>$$,,,$$$$>>>>>%%%##ttttt",
"ttttt##%%%>>>>>$$,,,$$$$>>>>>%%%##ttttt",
"ttttt##:::>>%%%999999999%%%>>:::##ttttt",
"ttttt##:::>>%%%999999999%%%>>:::##ttttt",
"ttttt##:::>>%%%999999999%%%>>:::##ttttt",
"tt###%%:::::.....qqqqq.....:::::%%###tt",
"tt###%%:::::.....qqqqq.....:::::%%###tt",
"tt###%%:::..eeeooqqqqqooeee..:::%%###tt",
"tt###%%:::..eeeooqqqqqooeee..:::%%###tt",
"tt###%%:::..eeeooqqqqqooeee..:::%%###tt",
"tt###:::::$$rrr77qqqqq77rrr$$:::::###tt",
"tt###:::::$$rrr77qqqqq77rrr$$:::::###tt",
"tt###%%>>>$$000qqqqqqqqq000$$>>>%%###tt",
"tt###%%>>>$$000qqqqqqqqq000$$>>>%%###tt",
"tt###%%>>>$$000qqqqqqqqq000$$>>>%%###tt",
"ttttt##>>>%%@@@@@&&&&&@@@@@%%>>>##ttttt",
"ttttt##>>>%%@@@@@&&&&&@@@@@%%>>>##ttttt",
"tt###%%---rr&&&&&00000&&&&&rr---%%###tt",
"tt###%%---rr&&&&&00000&&&&&rr---%%###tt",
"tt###%%---rr&&&&&00000&&&&&rr---%%###tt",
"##%%%;;%%%99rrrrr00000rrrrr99%%%;;%%%##",
"##%%%;;%%%99rrrrr00000rrrrr99%%%;;%%%##",
"tt###::>>>>>11111rrrrr11111>>>>>::###tt",
"tt###::>>>>>11111rrrrr11111>>>>>::###tt",
"**%%%$$%%%qq777883333388777qq%%%$$%%%**",
"**%%%$$%%%qq777883333388777qq%%%$$%%%**",
"**%%%$$%%%qq777883333388777qq%%%$$%%%**",
"%%===::,,,qq111223333322111qq%%%%%===%%",
"%%===::,,,qq111223333322111qq%%%%%===%%",
"##%%%@@qqqqq&&&++,,,,,++&&&qqqqq@@%%%##",
"##%%%@@qqqqq&&&++,,,,,++&&&qqqqq@@%%%##",
"##%%%@@qqqqq&&&++,,,,,++&&&qqqqq@@%%%##",
"tt###@@qqq&&111222222222111&&qqq@@###tt",
"tt###@@qqq&&111222222222111&&qqq@@###tt",
"ttttttt@@@@@444555555555444@@@@@ttttttt",
"ttttttt@@@@@444555555555444@@@@@ttttttt",
"ttttttt@@@@@444555555555444@@@@@ttttttt",
"ttttttttttOO555wwwwwwwww555OOtttttttttt",
"ttttttttttOO555wwwwwwwww555OOtttttttttt",
"ttttttttttttOOOOOOOOOOOOOOOtttttttttttt",
"ttttttttttttOOOOOOOOOOOOOOOtttttttttttt",
"ttttttttttttOOOOOOOOOOOOOOOtttttttttttt",
"tttttttttttt@@@<<$$$$$<<@@@tttttttttttt",
"tttttttttttt@@@<<$$$$$<<@@@tttttttttttt",
"tttttttttttt@@@qq&&&&&qq@@@tttttttttttt",
"tttttttttttt@@@qq&&&&&qq@@@tttttttttttt",
"tttttttttttt@@@qq&&&&&qq@@@tttttttttttt",
"tttttttttttt@@@rr&&&&&rr@@@tttttttttttt",
"tttttttttttt@@@rr&&&&&rr@@@tttttttttttt",
"ttttttttttttXXX66XXXXX66XXXtttttttttttt",
"ttttttttttttXXX66XXXXX66XXXtttttttttttt",
"ttttttttttttXXX66XXXXX66XXXtttttttttttt",
"ttttttttttttttt         ttttttttttttttt",
"ttttttttttttttt         ttttttttttttttt"
};
