/* XPM */
static char *result[] = {
/* columns rows colors chars-per-pixel */
"52 64 34 1 ",
"  c #002035",
". c #5B0327",
"X c #033E5B",
"o c #012473",
"O c #720078",
"+ c #970034",
"@ c #A61427",
"# c #AC2931",
"$ c #D14735",
"% c #FF7640",
"& c #EE7461",
"* c #FAB604",
"= c #F6AD13",
"- c #FFCA00",
"; c #FFFC35",
": c #F98241",
"> c #FFA87E",
", c #00298F",
"< c #23798A",
"1 c #1A5BDC",
"2 c #2479F4",
"3 c #B631B0",
"4 c #D965AE",
"5 c #0B8CA0",
"6 c #0C97AB",
"7 c #2AA0F7",
"8 c #56D2FB",
"9 c #FBA785",
"0 c #FFC9AA",
"q c #FFD4A4",
"w c #FF98D4",
"e c #89C1E9",
"r c #EDF4FF",
"t c None",
/* pixels */
"tttttttttttttttttttttttttttt##############tttttttttt",
"tttttttttttttttttttttttttttt##############tttttttttt",
"ttttttttttttttttttttttttt###%%%%%%%%%%%%%%###ttttttt",
"ttttttttttttttttttttttttt###%%%%%%%%%%%%%%###ttttttt",
"ttttttttttttttttttttttttt###%%%%%%%%%%%%%%###ttttttt",
"ttttttttttttttttttttttt##-----------------%%%##ttttt",
"ttttttttttttttttttttttt##-----------------%%%##ttttt",
"tttttttttttttttttttt###--%%%$$----------;;---##ttttt",
"tttttttttttttttttttt###--%%%$$----------;;---##ttttt",
"tttttttttttttttttttt###--%%%$$----------;;---##ttttt",
"tttttttttttttttttt##---$$%%%$$%%%;;;;;;;;;;;;%%###tt",
"tttttttttttttttttt##---$$%%%$$%%%;;;;;;;;;;;;%%###tt",
"tttttttttttttttttt##---$$99999999%%;;;;;-----%%###tt",
"tttttttttttttttttt##---$$99999999%%;;;;;-----%%###tt",
"tttttttttttttttttt##---$$99999999%%;;;;;-----%%###tt",
"tttttttttttttttttt##:::@@qqq.....99%%--------%%###tt",
"tttttttttttttttttt##:::@@qqq.....99%%--------%%###tt",
"tttttttttttttttttt##:::@@qqqooeee..%%--------$$###tt",
"tttttttttttttttttt##:::@@qqqooeee..%%--------$$###tt",
"tttttttttttttttttt##:::@@qqqooeee..%%--------$$###tt",
"tttttttttttttttttttt###qqqqq77rrr99$$-----%%%$$###tt",
"tttttttttttttttttttt###qqqqq77rrr99$$-----%%%$$###tt",
"tttttttttttttttttttt###@@qqqqqqqqqq$$-----%%%##ttttt",
"tttttttttttttttttttt###@@qqqqqqqqqq$$-----%%%##ttttt",
"tttttttttttttttttttt###@@qqqqqqqqqq$$-----%%%##ttttt",
"ttttttttttttttttttttttt##@@@qqqqqqq$$;;;--%%%##ttttt",
"ttttttttttttttttttttttt##@@@qqqqqqq$$;;;--%%%##ttttt",
"tttttttttttttttttttt###%%###@@@@@&&$$;;;;;***%%###tt",
"tttttttttttttttttttt###%%###@@@@@&&$$;;;;;***%%###tt",
"tttttttttttttttttttt###%%###@@@@@&&$$;;;;;***%%###tt",
"tttttttttttttttttttt###--###,,qqqrrrr%%%;;%%%==%%%##",
"tttttttttttttttttttt###--###,,qqqrrrr%%%;;%%%==%%%##",
"tttttttttttttttttttt###%%###rrrrr,,,,%%%--***%%###tt",
"tttttttttttttttttttt###%%###rrrrr,,,,%%%--***%%###tt",
"ttttttttttttttttttttttt##,,,222228877000%%%%%##ttttt",
"ttttttttttttttttttttttt##,,,222228877000%%%%%##ttttt",
"ttttttttttttttttttttttt##,,,222228877000%%%%%##ttttt",
"tttttttttttttttttttt###%%,,,112221111@@@00-----###tt",
"tttttttttttttttttttt###%%,,,112221111@@@00-----###tt",
"tttttttttttttttttt##%%%$$000:::::++++@@@00@@@%%%%%##",
"tttttttttttttttttt##%%%$$000:::::++++@@@00@@@%%%%%##",
"tttttttttttttttttt##%%%$$000:::::++++@@@00@@@%%%%%##",
"tttttttttttttttttttt###@@&&&,,111110000000@@@#####tt",
"tttttttttttttttttttt###@@&&&,,111110000000@@@#####tt",
"tttttttttttttttttttttttttOOO33333OO@@000&&@@@ttttttt",
"tttttttttttttttttttttttttOOO33333OO@@000&&@@@ttttttt",
"tttttttttttttttttttttttttOOO33333OO@@000&&@@@ttttttt",
"tttttttttttttttttttttttttOOO44wwwww44@@@@@tttttttttt",
"tttttttttttttttttttttttttOOO44wwwww44@@@@@tttttttttt",
"tttttttttttttttttttttttttOOOOOOOOOOOOOOOOOtttttttttt",
"tttttttttttttttttttttttttOOOOOOOOOOOOOOOOOtttttttttt",
"tttttttttttttttttttttttttOOOOOOOOOOOOOOOOOtttttttttt",
"tttttttttttttttttttttttttttt@@>>>$$>>@@@tttttttttttt",
"tttttttttttttttttttttttttttt@@>>>$$>>@@@tttttttttttt",
"tttttttttttttttttttttttttttt@@qqq&&qq@@@tttttttttttt",
"tttttttttttttttttttttttttttt@@qqq&&qq@@@tttttttttttt",
"tttttttttttttttttttttttttttt@@qqq&&qq@@@tttttttttttt",
"tttttttttttttttttttttttttttt@@rrr&&rr@@@tttttttttttt",
"tttttttttttttttttttttttttttt@@rrr&&rr@@@tttttttttttt",
"tttttttttttttttttttttttttttt  555XX55   tttttttttttt",
"tttttttttttttttttttttttttttt  555XX55   tttttttttttt",
"tttttttttttttttttttttttttttt  555XX55   tttttttttttt",
"ttttttttttttttttttttttttt   66XXX<<XX   tttttttttttt",
"ttttttttttttttttttttttttt   66XXX<<XX   tttttttttttt"
};
