/* XPM */
static char *result[] = {
/* columns rows colors chars-per-pixel */
"39 64 34 1 ",
"  c #002035",
". c #5B0327",
"X c #033E5B",
"o c #012473",
"O c #720078",
"+ c #970034",
"@ c #A61427",
"# c #AC2931",
"$ c #D14735",
"% c #FF7640",
"& c #EE7461",
"* c #FAB604",
"= c #F6AD13",
"- c #FFCA00",
"; c #FFFC35",
": c #F98241",
"> c #FFA87E",
", c #00298F",
"< c #247B8C",
"1 c #1A5BDC",
"2 c #2479F4",
"3 c #B631B0",
"4 c #D965AE",
"5 c #0B8CA0",
"6 c #0C97AB",
"7 c #2AA0F7",
"8 c #56D2FB",
"9 c #FBA785",
"0 c #FFC9AA",
"q c #FFD4A4",
"w c #FF98D4",
"e c #89C1E9",
"r c #EDF4FF",
"t c None",
/* pixels */
"tttttttttt##############ttttttttttttttt",
"tttttttttt##############ttttttttttttttt",
"ttttttt###%%%%%%%%%%%%%%###tttttttttttt",
"ttttttt###%%%%%%%%%%%%%%###tttttttttttt",
"ttttttt###%%%%%%%%%%%%%%###tttttttttttt",
"ttttt##%%%-----------------##tttttttttt",
"ttttt##%%%-----------------##tttttttttt",
"ttttt##---;;----------$$%%%--###ttttttt",
"ttttt##---;;----------$$%%%--###ttttttt",
"ttttt##---;;----------$$%%%--###ttttttt",
"tt###%%;;;;;;;;;;;;;%%$$%%%$$---##ttttt",
"tt###%%;;;;;;;;;;;;;%%$$%%%$$---##ttttt",
"tt###%%-----;;;;;%%%9999999$$---##ttttt",
"tt###%%-----;;;;;%%%9999999$$---##ttttt",
"tt###%%-----;;;;;%%%9999999$$---##ttttt",
"tt###%%--------%%999....qqq@@:::##ttttt",
"tt###%%--------%%999....qqq@@:::##ttttt",
"tt###$$--------%%...eeooqqq@@:::##ttttt",
"tt###$$--------%%...eeooqqq@@:::##ttttt",
"tt###$$--------%%...eeooqqq@@:::##ttttt",
"tt###$$%%%-----$$999rr77qqqqq###ttttttt",
"tt###$$%%%-----$$999rr77qqqqq###ttttttt",
"ttttt##%%%-----$$qqqqqqqqqq@@###ttttttt",
"ttttt##%%%-----$$qqqqqqqqqq@@###ttttttt",
"ttttt##%%%-----$$qqqqqqqqqq@@###ttttttt",
"ttttt##%%%--;;;$$qqqqqqq@@@##tttttttttt",
"ttttt##%%%--;;;$$qqqqqqq@@@##tttttttttt",
"tt###%%***;;;;;$$&&&@@@@###%%###ttttttt",
"tt###%%***;;;;;$$&&&@@@@###%%###ttttttt",
"tt###%%***;;;;;$$&&&@@@@###%%###ttttttt",
"##%%%==%%%;;%%%rrrrrqq,,###--###ttttttt",
"##%%%==%%%;;%%%rrrrrqq,,###--###ttttttt",
"tt###%%***--%%%,,111rrrr###%%###ttttttt",
"tt###%%***--%%%,,111rrrr###%%###ttttttt",
"ttttt##%%%%%000,,8882222,,,##tttttttttt",
"ttttt##%%%%%000,,8882222,,,##tttttttttt",
"ttttt##%%%%%000,,8882222,,,##tttttttttt",
"tt###-----%%@@@111112211,,,--###ttttttt",
"tt###-----%%@@@111112211,,,--###ttttttt",
"##%%%%%@@@00@@@+++++::::000@@---##ttttt",
"##%%%%%@@@00@@@+++++::::000@@---##ttttt",
"##%%%%%@@@00@@@+++++::::000@@---##ttttt",
"tt#####@@@000000011111,,&&&@@###ttttttt",
"tt#####@@@000000011111,,&&&@@###ttttttt",
"ttttttt@@@&&000@@OOO3333OOOtttttttttttt",
"ttttttt@@@&&000@@OOO3333OOOtttttttttttt",
"ttttttt@@@&&000@@OOO3333OOOtttttttttttt",
"tttttttttt@@@@@33wwwww44OOOtttttttttttt",
"tttttttttt@@@@@33wwwww44OOOtttttttttttt",
"ttttttttttOOOOOOOOOOOOOOOOOtttttttttttt",
"ttttttttttOOOOOOOOOOOOOOOOOtttttttttttt",
"ttttttttttOOOOOOOOOOOOOOOOOtttttttttttt",
"tttttttttttt@@@>>$$$>>@@ttttttttttttttt",
"tttttttttttt@@@>>$$$>>@@ttttttttttttttt",
"tttttttttttt@@@qq&&&qq@@ttttttttttttttt",
"tttttttttttt@@@qq&&&qq@@ttttttttttttttt",
"tttttttttttt@@@qq&&&qq@@ttttttttttttttt",
"tttttttttttt@@@rr&&&rr@@ttttttttttttttt",
"tttttttttttt@@@rr&&&rr@@ttttttttttttttt",
"tttttttttttt   55XXX55  ttttttttttttttt",
"tttttttttttt   55XXX55  ttttttttttttttt",
"tttttttttttt   55XXX55  ttttttttttttttt",
"tttttttttttt   XX<<<XX66   tttttttttttt",
"tttttttttttt   XX<<<XX66   tttttttttttt"
};
