/* XPM */
static char *result[] = {
/* columns rows colors chars-per-pixel */
"52 64 22 1 ",
"  c #002035",
". c #033E5B",
"X c #720078",
"o c #970034",
"O c #A61427",
"+ c #AC2931",
"@ c #D14735",
"# c #F47139",
"$ c #F9763A",
"% c #FF7640",
"& c #EE7461",
"* c #F7AF07",
"= c #FAAB0D",
"- c #FAB604",
"; c #FAB914",
": c #FFCA00",
"> c #FFEF26",
", c #FFFC35",
"< c #D965AE",
"1 c #0C97AB",
"2 c #FF98D4",
"3 c None",
/* pixels */
"3333333333333333333333333++++++++++++333333333333333",
"3333333333333333333333333++++++++++++333333333333333",
"33333333333333333333333++%%%%%%%%%%%%+++333333333333",
"33333333333333333333333++%%%%%%%%%%%%+++333333333333",
"33333333333333333333333++%%%%%%%%%%%%+++333333333333",
"33333333333333333333+++%%::::::::::::%%%++3333333333",
"33333333333333333333+++%%::::::::::::%%%++3333333333",
"333333333333333333++%%%,,:::%%%%%%%::,,,%%+++3333333",
"333333333333333333++%%%,,:::%%%%%%%::,,,%%+++3333333",
"333333333333333333++%%%,,:::%%%%%%%::,,,%%+++3333333",
"333333333333333333++,,,:::::%%%%%%%:::::,,+++3333333",
"333333333333333333++,,,:::::%%%%%%%:::::,,+++3333333",
"333333333333333+++%%,,,,,::::::::::::,,,,,%%%++33333",
"333333333333333+++%%,,,,,::::::::::::,,,,,%%%++33333",
"333333333333333+++%%,,,,,::::::::::::,,,,,%%%++33333",
"333333333333333+++:::::,,,,,,,,,,,,,,,,,:::::++33333",
"333333333333333+++:::::,,,,,,,,,,,,,,,,,:::::++33333",
"333333333333333+++:::::::,,,,,,,,,,,,::::::::++33333",
"333333333333333+++:::::::,,,,,,,,,,,,::::::::++33333",
"333333333333333+++:::::::,,,,,,,,,,,,::::::::++33333",
"333333333333333+++%%::::::::::::::::::::::%%%++33333",
"333333333333333+++%%::::::::::::::::::::::%%%++33333",
"333333333333333+++%%::::::::::::::::::::::%%%++33333",
"333333333333333+++%%::::::::::::::::::::::%%%++33333",
"333333333333333+++%%::::::::::::::::::::::%%%++33333",
"333333333333333333@@:::>>::::::::::::>>>::@@@3333333",
"333333333333333333@@:::>>::::::::::::>>>::@@@3333333",
"333333333333333+++%%---::>>>,,,,,,,>>:::--%%%++33333",
"333333333333333+++%%---::>>>,,,,,,,>>:::--%%%++33333",
"333333333333333+++%%---::>>>,,,,,,,>>:::--%%%++33333",
"3333333333333++%%%==%%%::%%%:::::::%%:::%%===%%+++33",
"3333333333333++%%%==%%%::%%%:::::::%%:::%%===%%+++33",
"333333333333333+++%%---::%%%:::::::%%:::--%%%++33333",
"333333333333333+++%%---::%%%:::::::%%:::--%%%++33333",
"3333333333333**%%%@@:::::%%%:::::::%%:::::@@@%%***33",
"3333333333333**%%%@@:::::%%%:::::::%%:::::@@@%%***33",
"3333333333333**%%%@@:::::%%%:::::::%%:::::@@@%%***33",
"3333333333333%%---::###@@:::::%%%::::@@@##:::;;%%%33",
"3333333333333%%---::###@@:::::%%%::::@@@##:::;;%%%33",
"3333333333333++%%%%%@@@$$:::::@@@::::$$$@@%%%%%+++33",
"3333333333333++%%%%%@@@$$:::::@@@::::$$$@@%%%%%+++33",
"3333333333333++%%%%%@@@$$:::::@@@::::$$$@@%%%%%+++33",
"333333333333333++++++++@@%%%@@+++@@%%@@@+++++++33333",
"333333333333333++++++++@@%%%@@+++@@%%@@@+++++++33333",
"333333333333333OOO&&XXX+++++ooooooo+++++XX&&&OO33333",
"333333333333333OOO&&XXX+++++ooooooo+++++XX&&&OO33333",
"333333333333333OOO&&XXX+++++ooooooo+++++XX&&&OO33333",
"333333333333333333OOXXX<<<<<<<<<<<<<<222XXOOO3333333",
"333333333333333333OOXXX<<<<<<<<<<<<<<222XXOOO3333333",
"33333333333333333333333XX<<<<<<<<2222XXX333333333333",
"33333333333333333333333XX<<<<<<<<2222XXX333333333333",
"33333333333333333333333XX<<<<<<<<2222XXX333333333333",
"3333333333333333333333333XXXXXXXXXXXX333333333333333",
"3333333333333333333333333XXXXXXXXXXXX333333333333333",
"33333333333333333333333..OOO@@...OO@@...333333333333",
"33333333333333333333333..OOO@@...OO@@...333333333333",
"33333333333333333333333..OOO@@...OO@@...333333333333",
"33333333333333333333333..OOO&&...OO&&...333333333333",
"33333333333333333333333..OOO&&...OO&&...333333333333",
"33333333333333333333333  111.....11..   333333333333",
"33333333333333333333333  111.....11..   333333333333",
"33333333333333333333333  111.....11..   333333333333",
"3333333333333333333333333            333333333333333",
"3333333333333333333333333            333333333333333"
};
