/* XPM */
static char *result[] = {
/* columns rows colors chars-per-pixel */
"52 64 34 1 ",
"  c #002035",
". c #5B0327",
"X c #033E5B",
"o c #012473",
"O c #720078",
"+ c #970034",
"@ c #A61427",
"# c #AC2931",
"$ c #D14735",
"% c #FF7640",
"& c #EE7461",
"* c #FAB604",
"= c #F6AD13",
"- c #FFCA00",
"; c #FFFC35",
": c #F98241",
"> c #FFA87E",
", c #00298F",
"< c #247B8C",
"1 c #1A5BDC",
"2 c #2479F4",
"3 c #B631B0",
"4 c #D965AE",
"5 c #0B8CA0",
"6 c #0C97AB",
"7 c #2AA0F7",
"8 c #56D2FB",
"9 c #FBA785",
"0 c #FFC9AA",
"q c #FFD4A4",
"w c #FF98D4",
"e c #89C1E9",
"r c #EDF4FF",
"t c None",
/* pixels */
"ttttttttttttttttttttttt##############ttttttttttttttt",
"ttttttttttttttttttttttt##############ttttttttttttttt",
"tttttttttttttttttttt###%%%%%%%%%%%%%%###tttttttttttt",
"tttttttttttttttttttt###%%%%%%%%%%%%%%###tttttttttttt",
"tttttttttttttttttttt###%%%%%%%%%%%%%%###tttttttttttt",
"tttttttttttttttttt##%%%-----------------##tttttttttt",
"tttttttttttttttttt##%%%-----------------##tttttttttt",
"tttttttttttttttttt##---;;----------$$%%%--###ttttttt",
"tttttttttttttttttt##---;;----------$$%%%--###ttttttt",
"tttttttttttttttttt##---;;----------$$%%%--###ttttttt",
"ttttttttttttttt###%%;;;;;;;;;;;;;%%$$%%%$$---##ttttt",
"ttttttttttttttt###%%;;;;;;;;;;;;;%%$$%%%$$---##ttttt",
"ttttttttttttttt###%%-----;;;;;%%%9999999$$---##ttttt",
"ttttttttttttttt###%%-----;;;;;%%%9999999$$---##ttttt",
"ttttttttttttttt###%%-----;;;;;%%%9999999$$---##ttttt",
"ttttttttttttttt###%%--------%%999....qqq@@:::##ttttt",
"ttttttttttttttt###%%--------%%999....qqq@@:::##ttttt",
"ttttttttttttttt###$$--------%%...eeooqqq@@:::##ttttt",
"ttttttttttttttt###$$--------%%...eeooqqq@@:::##ttttt",
"ttttttttttttttt###$$--------%%...eeooqqq@@:::##ttttt",
"ttttttttttttttt###$$%%%-----$$999rr77qqqqq###ttttttt",
"ttttttttttttttt###$$%%%-----$$999rr77qqqqq###ttttttt",
"tttttttttttttttttt##%%%-----$$qqqqqqqqqq@@###ttttttt",
"tttttttttttttttttt##%%%-----$$qqqqqqqqqq@@###ttttttt",
"tttttttttttttttttt##%%%-----$$qqqqqqqqqq@@###ttttttt",
"tttttttttttttttttt##%%%--;;;$$qqqqqqq@@@##tttttttttt",
"tttttttttttttttttt##%%%--;;;$$qqqqqqq@@@##tttttttttt",
"ttttttttttttttt###%%***;;;;;$$&&&@@@@###%%###ttttttt",
"ttttttttttttttt###%%***;;;;;$$&&&@@@@###%%###ttttttt",
"ttttttttttttttt###%%***;;;;;$$&&&@@@@###%%###ttttttt",
"ttttttttttttt##%%%==%%%;;%%%rrrrrqq,,###--###ttttttt",
"ttttttttttttt##%%%==%%%;;%%%rrrrrqq,,###--###ttttttt",
"ttttttttttttttt###%%***--%%%,,111rrrr###%%###ttttttt",
"ttttttttttttttt###%%***--%%%,,111rrrr###%%###ttttttt",
"tttttttttttttttttt##%%%%%000,,8882222,,,##tttttttttt",
"tttttttttttttttttt##%%%%%000,,8882222,,,##tttttttttt",
"tttttttttttttttttt##%%%%%000,,8882222,,,##tttttttttt",
"ttttttttttttttt###-----%%@@@111112211,,,--###ttttttt",
"ttttttttttttttt###-----%%@@@111112211,,,--###ttttttt",
"ttttttttttttt##%%%%%@@@00@@@+++++::::000@@---##ttttt",
"ttttttttttttt##%%%%%@@@00@@@+++++::::000@@---##ttttt",
"ttttttttttttt##%%%%%@@@00@@@+++++::::000@@---##ttttt",
"ttttttttttttttt#####@@@000000011111,,&&&@@###ttttttt",
"ttttttttttttttt#####@@@000000011111,,&&&@@###ttttttt",
"tttttttttttttttttttt@@@&&000@@OOO3333OOOtttttttttttt",
"tttttttttttttttttttt@@@&&000@@OOO3333OOOtttttttttttt",
"tttttttttttttttttttt@@@&&000@@OOO3333OOOtttttttttttt",
"ttttttttttttttttttttttt@@@@@33wwwww44OOOtttttttttttt",
"ttttttttttttttttttttttt@@@@@33wwwww44OOOtttttttttttt",
"tttttttttttttttttttttttOOOOOOOOOOOOOOOOOtttttttttttt",
"tttttttttttttttttttttttOOOOOOOOOOOOOOOOOtttttttttttt",
"tttttttttttttttttttttttOOOOOOOOOOOOOOOOOtttttttttttt",
"ttttttttttttttttttttttttt@@@>>$$$>>@@ttttttttttttttt",
"ttttttttttttttttttttttttt@@@>>$$$>>@@ttttttttttttttt",
"ttttttttttttttttttttttttt@@@qq&&&qq@@ttttttttttttttt",
"ttttttttttttttttttttttttt@@@qq&&&qq@@ttttttttttttttt",
"ttttttttttttttttttttttttt@@@qq&&&qq@@ttttttttttttttt",
"ttttttttttttttttttttttttt@@@rr&&&rr@@ttttttttttttttt",
"ttttttttttttttttttttttttt@@@rr&&&rr@@ttttttttttttttt",
"ttttttttttttttttttttttttt   55XXX55  ttttttttttttttt",
"ttttttttttttttttttttttttt   55XXX55  ttttttttttttttt",
"ttttttttttttttttttttttttt   55XXX55  ttttttttttttttt",
"ttttttttttttttttttttttttt   XX<<<XX66   tttttttttttt",
"ttttttttttttttttttttttttt   XX<<<XX66   tttttttttttt"
};
