/* XPM */
static char *result[] = {
/* columns rows colors chars-per-pixel */
"32 64 14 1 ",
"  c #54000C",
". c #630520",
"X c #680727",
"o c #720922",
"O c #750A22",
"+ c #850D00",
"@ c #881802",
"# c #A10706",
"$ c #CB0A07",
"% c #EE3D33",
"& c #B88207",
"* c #CCA80C",
"= c #F3DE13",
"- c None",
/* pixels */
"@@                            @@",
"@@                            @@",
"  ++########################++  ",
"  ++########################++  ",
"  ##$$%%%%%%%%%%%%%%%%%%%%$$##  ",
"  ##$$%%%%%%%%%%%%%%%%%%%%$$##  ",
"  $$..                    ..$$  ",
"  $$..                    ..$$  ",
"XX$$  OOXX  XXXX  XXXX  OO  $$  ",
"XX$$  OOXX  XXXX  XXXX  OO  $$  ",
"XX$$  ++$$  ++$$XX++$$  ##  $$  ",
"XX$$  ++$$  ++$$XX++$$  ##  $$  ",
"XX%%  ##$$XX##$$XX##$$XX++  %%  ",
"XX%%  ##$$XX##$$XX##$$XX++  %%  ",
"  %%  ++++XX++++XX++++XXXX  %%  ",
"  %%  ++++XX++++XX++++XXXX  %%  ",
"  %%XX$$%%%%%%%%%%%%%%%%##XX%%  ",
"  %%XX$$%%%%%%%%%%%%%%%%##XX%%  ",
"  %%XX##$$$$$$$$$$$$$$$$$$XX%%  ",
"  %%XX##$$$$$$$$$$$$$$$$$$XX%%  ",
"  %%XX##$$$$$$$$$$$$$$$$##  %%  ",
"  %%XX##$$$$$$$$$$$$$$$$##  %%  ",
"  %%XX##################oo  %%  ",
"  %%XX##################oo  %%  ",
"  %%XX                    ..%%  ",
"  %%XX                    ..%%  ",
"XX%%XXXXXX  XXXX  XXXX  ##XX%%  ",
"XX%%XXXXXX  XXXX  XXXX  ##XX%%  ",
"XX%%XX++++  ++++  ++++  $$XX%%  ",
"XX%%XX++++  ++++  ++++  $$XX%%  ",
"XX%%XX##$$  ##$$  ##$$  %%XX%%  ",
"XX%%XX##$$  ##$$  ##$$  %%XX%%  ",
"XX%%XX##%%XX##%%XX##%%**==XX%%  ",
"XX%%XX##%%XX##%%XX##%%**==XX%%  ",
"XX%%XX##%%XX##%%XX##%%&&**XX%%  ",
"XX%%XX##%%XX##%%XX##%%&&**XX%%  ",
"XX%%XX##$$XX##$$XX##$$XX##XX%%  ",
"XX%%XX##$$XX##$$XX##$$XX##XX%%  ",
"  %%XX####XX####XX####XX##XX%%  ",
"  %%XX####XX####XX####XX##XX%%  ",
"  %%XX$$%%%%%%%%%%%%%%%%$$++%%  ",
"  %%XX$$%%%%%%%%%%%%%%%%$$++%%  ",
"  %%XX##$$$$$$$$$$$$$$$$$$XX%%  ",
"  %%XX##$$$$$$$$$$$$$$$$$$XX%%  ",
"  %%XX##$$$$$$$$$$$$$$$$##  %%  ",
"  %%XX##$$$$$$$$$$$$$$$$##  %%  ",
"  %%XX##################XX  %%  ",
"  %%XX##################XX  %%  ",
"  %%..                      %%  ",
"  %%..                      %%  ",
"  %%  ooXX  XXXX  XXXX  XX  %%  ",
"  %%  ooXX  XXXX  XXXX  XX  %%  ",
"  %%  ++++  ++++  ++++  XX  %%  ",
"  %%  ++++  ++++  ++++  XX  %%  ",
"  $$  ##$$XX##$$XX##$$  ++  $$  ",
"  $$  ##$$XX##$$XX##$$  ++  $$  ",
"  $$  ##%%XX##%%XX##%%XX++XX$$  ",
"  $$  ##%%XX##%%XX##%%XX++XX$$  ",
"  ##  ##$$  ##$$  ##$$  ++XX##  ",
"  ##  ##$$  ##$$  ##$$  ++XX##  ",
"  XX  XXXX  XXXX  XXXX      XX  ",
"  XX  XXXX  XXXX  XXXX      XX  ",
"--------------------------------",
"--------------------------------"
};
