/* XPM */
static char *result[] = {
/* columns rows colors chars-per-pixel */
"32 64 22 1 ",
"  c #351927",
". c #41222C",
"X c #5A3536",
"o c #643D39",
"O c #5F443A",
"+ c #67403A",
"@ c #69413B",
"# c #69423B",
"$ c #6B433C",
"% c #6C453D",
"& c #70473E",
"* c #AB743F",
"= c #C96D38",
"- c #D77839",
"; c #845740",
": c #875A41",
"> c #B94752",
", c #83654D",
"< c #936344",
"1 c #D06B41",
"2 c #F7A32C",
"3 c None",
/* pixels */
"3333333333333  ..333333333333333",
"3333333333333  ..333333333333333",
"3333.....33  <<**..3333333333333",
"3333.....33  <<**..3333333333333",
"33..<<<<<....##<<<<..33333333333",
"33..<<<<<....##<<<<..33333333333",
"  XX&&&&&::oo....##..33333333333",
"  XX&&&&&::oo....##..33333333333",
"  XX&&&&&::oo....##..33333333333",
"  XX&&   &&;;;;##....33333333333",
"  XX&&   &&;;;;##....33333333333",
"33  XX&&&&&  @@;;;;&&..333333333",
"33  XX&&&&&  @@;;;;&&..333333333",
"3333  XXX&&$$  &&&&::<<...333333",
"3333  XXX&&$$  &&&&::<<...333333",
"333333   XX&&&&XX    &&<<<..3333",
"333333   XX&&&&XX    &&<<<..3333",
"333333333  XX&&&&&&&&&&<<<..3333",
"333333333  XX&&&&&&&&&&<<<..3333",
"33333333333    XXXXXX&&&&&..3333",
"33333333333    XXXXXX&&&&&..3333",
"3333......................333333",
"3333......................333333",
"33..<<***************<<&&&..3333",
"33..<<***************<<&&&..3333",
"33..<<***************<<&&&..3333",
"  <<&&&&&&&&&&&&&&&&&&&&&&&&..33",
"  <<&&&&&&&&&&&&&&&&&&&&&&&&..33",
"  &&&&   &&    &&  &&     XX++,,",
"  &&&&   &&    &&  &&     XX++,,",
"  XX&&&&&&&&&&&&&&&&&&&&&&%%XXOO",
"  XX&&&&&&&&&&&&&&&&&&&&&&%%XXOO",
"33  XXXXXXXXXXXXXXXXXXXXXXXX..33",
"33  XXXXXXXXXXXXXXXXXXXXXXXX..33",
"3333                        3333",
"3333                        3333",
"33333333333  XXXX..3333333333333",
"33333333333  XXXX..3333333333333",
"33333333333  XX&&..3333333333333",
"33333333333  XX&&..3333333333333",
"33333333333  XX&&..3333333333333",
"33333333333  &&<<..3333333333333",
"33333333333  &&<<..3333333333333",
"33333333333  &&**..3333333333333",
"33333333333  &&**..3333333333333",
"33333333333  &&**..3333333333333",
"33333333333  &&**..3333333333333",
"33333333333  &&**..3333333333333",
"33333333333  &&**..3333333333333",
"33333333333  &&**..3333333333333",
"33333333333  &&**..3333333333333",
"33333311111  &&**..1133333333333",
"33333311111  &&**..1133333333333",
"333311111>>  XX<<..>>11333333333",
"333311111>>  XX<<..>>11333333333",
"333311>>>>>  XX&&..>>11333333333",
"333311>>>>>  XX&&..>>11333333333",
"333311>>>>>  XX&&..>>11333333333",
"333311>>>22  ==XX..>>11333333333",
"333311>>>22  ==XX..>>11333333333",
"333333111>>22XX-->>1133333333333",
"333333111>>22XX-->>1133333333333",
"3333333331122..>>113333333333333",
"3333333331122..>>113333333333333"
};
