/* XPM */
static char *result[] = {
/* columns rows colors chars-per-pixel */
"64 64 6 1 ",
"  c #81373C",
". c #FFC700",
"X c #FFE218",
"o c #FFF0B4",
"O c #FFEEEE",
"+ c None",
/* pixels */
"++++++++++++++++++++++++++++        ++++++++++++++++++++++++++++",
"++++++++++++++++++++++++++++        ++++++++++++++++++++++++++++",
"++++++++++++++++++++++++++++        ++++++++++++++++++++++++++++",
"++++++++++++++++++++++++++++        ++++++++++++++++++++++++++++",
"++++++++++++++++++++++++    XXXXXXXX    ++++++++++++++++++++++++",
"++++++++++++++++++++++++    XXXXXXXX    ++++++++++++++++++++++++",
"++++++++++++++++++++++++    XXXXXXXX    ++++++++++++++++++++++++",
"++++++++++++++++++++++++    XXXXXXXX    ++++++++++++++++++++++++",
"++++++++++++++++++++    XXXXXXXXXXXXXXXX    ++++++++++++++++++++",
"++++++++++++++++++++    XXXXXXXXXXXXXXXX    ++++++++++++++++++++",
"++++++++++++++++++++    XXXXXXXXXXXXXXXX    ++++++++++++++++++++",
"++++++++++++++++++++    XXXXXXXXXXXXXXXX    ++++++++++++++++++++",
"++++++++++++++++++++    XXXXooooOOOOXXXX    ++++++++++++++++++++",
"++++++++++++++++++++    XXXXooooOOOOXXXX    ++++++++++++++++++++",
"++++++++++++++++++++    XXXXooooOOOOXXXX    ++++++++++++++++++++",
"++++++++++++++++++++    XXXXooooOOOOXXXX    ++++++++++++++++++++",
"++++                    oooo........oooo                    ++++",
"++++                    oooo........oooo                    ++++",
"++++                    oooo........oooo                    ++++",
"++++                    oooo........oooo                    ++++",
"++++    XXXXXXXXXXXXXXXXoooo........ooooXXXXXXXXXXXXXXXX    ++++",
"++++    XXXXXXXXXXXXXXXXoooo........ooooXXXXXXXXXXXXXXXX    ++++",
"++++    XXXXXXXXXXXXXXXXoooo........ooooXXXXXXXXXXXXXXXX    ++++",
"++++    XXXXXXXXXXXXXXXXoooo........ooooXXXXXXXXXXXXXXXX    ++++",
"++++    ooooOOOOooooXXXX................XXXXooooOOOOoooo    ++++",
"++++    ooooOOOOooooXXXX................XXXXooooOOOOoooo    ++++",
"++++    ooooOOOOooooXXXX................XXXXooooOOOOoooo    ++++",
"++++    ooooOOOOooooXXXX................XXXXooooOOOOoooo    ++++",
"++++    ................................................    ++++",
"++++    ................................................    ++++",
"++++    ................................................    ++++",
"++++    ................................................    ++++",
"++++++++    ........................................    ++++++++",
"++++++++    ........................................    ++++++++",
"++++++++    ........................................    ++++++++",
"++++++++    ........................................    ++++++++",
"++++++++++++    XXXX........................XXXX    ++++++++++++",
"++++++++++++    XXXX........................XXXX    ++++++++++++",
"++++++++++++    XXXX........................XXXX    ++++++++++++",
"++++++++++++    XXXX........................XXXX    ++++++++++++",
"++++++++    XXXXoooo........................ooooXXXX    ++++++++",
"++++++++    XXXXoooo........................ooooXXXX    ++++++++",
"++++++++    XXXXoooo........................ooooXXXX    ++++++++",
"++++++++    XXXXoooo........................ooooXXXX    ++++++++",
"++++++++    oooo................................oooo    ++++++++",
"++++++++    oooo................................oooo    ++++++++",
"++++++++    oooo................................oooo    ++++++++",
"++++++++    oooo................................oooo    ++++++++",
"++++++++    ................        ................    ++++++++",
"++++++++    ................        ................    ++++++++",
"++++++++    ................        ................    ++++++++",
"++++++++    ................        ................    ++++++++",
"++++++++    ............    ++++++++    ............    ++++++++",
"++++++++    ............    ++++++++    ............    ++++++++",
"++++++++    ............    ++++++++    ............    ++++++++",
"++++++++    ............    ++++++++    ............    ++++++++",
"++++++++                ++++++++++++++++                ++++++++",
"++++++++                ++++++++++++++++                ++++++++",
"++++++++                ++++++++++++++++                ++++++++",
"++++++++                ++++++++++++++++                ++++++++",
"++++++++++++++++++++++++++++++++++++++++++++++++++++++++++++++++",
"++++++++++++++++++++++++++++++++++++++++++++++++++++++++++++++++",
"++++++++++++++++++++++++++++++++++++++++++++++++++++++++++++++++",
"++++++++++++++++++++++++++++++++++++++++++++++++++++++++++++++++"
};
