/* XPM */
static char *result[] = {
/* columns rows colors chars-per-pixel */
"64 64 6 1 ",
"  c #803A3E",
". c #FFC600",
"X c #FFE11E",
"o c #FFF0B2",
"O c #FFEDED",
"+ c None",
/* pixels */
"++++++++++++++++++++++++++++++++++++++++++++++++++++++++++++++++",
"++++++++++++++++++++++++++++++++++++++++++++++++++++++++++++++++",
"++++++++++++++++++++++++++++++++++++++++++++++++++++++++++++++++",
"++++++++++++++++++++++++++++++++++++++++++++++++++++++++++++++++",
"++++++++++++++++++++++++++++++++++++++++++++++++++++++++++++++++",
"++++++++++++++++++++++++++++++++++++++++++++++++++++++++++++++++",
"++++++++++++++++++++++++++++++++++++++++++++++++++++++++++++++++",
"++++++++++++++++++++++++++++++++++++++++++++++++++++++++++++++++",
"++++++++++++++++++++++++++++++++++++++++++++++++++++++++++++++++",
"++++++++++++++++++++++++++++++++++++++++++++++++++++++++++++++++",
"++++++++++++++++++++++++++++++++++++++++++++++++++++++++++++++++",
"++++++++++++++++++++++++++++++++++++++++++++++++++++++++++++++++",
"++++++++++++++++++++++++++++++     +++++++++++++++++++++++++++++",
"++++++++++++++++++++++++++++++     +++++++++++++++++++++++++++++",
"++++++++++++++++++++++++++++++     +++++++++++++++++++++++++++++",
"+++++++++++++++++++++++++++   XXXXX  +++++++++++++++++++++++++++",
"+++++++++++++++++++++++++++   XXXXX  +++++++++++++++++++++++++++",
"+++++++++++++++++++++++++  XXXXXXXXXX   ++++++++++++++++++++++++",
"+++++++++++++++++++++++++  XXXXXXXXXX   ++++++++++++++++++++++++",
"+++++++++++++++++++++++++  XXXXXXXXXX   ++++++++++++++++++++++++",
"+++++++++++++++++++++++++  XXXooOOOXX   ++++++++++++++++++++++++",
"+++++++++++++++++++++++++  XXXooOOOXX   ++++++++++++++++++++++++",
"+++++++++++++++            ooo.....oo             ++++++++++++++",
"+++++++++++++++            ooo.....oo             ++++++++++++++",
"+++++++++++++++            ooo.....oo             ++++++++++++++",
"+++++++++++++++  XXXXXXXXXXooo.....ooXXXXXXXXXX   ++++++++++++++",
"+++++++++++++++  XXXXXXXXXXooo.....ooXXXXXXXXXX   ++++++++++++++",
"+++++++++++++++  oooOOoooXX..........XXXooOOOoo   ++++++++++++++",
"+++++++++++++++  oooOOoooXX..........XXXooOOOoo   ++++++++++++++",
"+++++++++++++++  oooOOoooXX..........XXXooOOOoo   ++++++++++++++",
"+++++++++++++++  ..............................   ++++++++++++++",
"+++++++++++++++  ..............................   ++++++++++++++",
"+++++++++++++++++   .........................  +++++++++++++++++",
"+++++++++++++++++   .........................  +++++++++++++++++",
"+++++++++++++++++   .........................  +++++++++++++++++",
"++++++++++++++++++++  XXX...............XX   +++++++++++++++++++",
"++++++++++++++++++++  XXX...............XX   +++++++++++++++++++",
"+++++++++++++++++   XXooo...............ooXXX  +++++++++++++++++",
"+++++++++++++++++   XXooo...............ooXXX  +++++++++++++++++",
"+++++++++++++++++   XXooo...............ooXXX  +++++++++++++++++",
"+++++++++++++++++   oo....................ooo  +++++++++++++++++",
"+++++++++++++++++   oo....................ooo  +++++++++++++++++",
"+++++++++++++++++   ..........     ..........  +++++++++++++++++",
"+++++++++++++++++   ..........     ..........  +++++++++++++++++",
"+++++++++++++++++   ..........     ..........  +++++++++++++++++",
"+++++++++++++++++   .......   +++++  ........  +++++++++++++++++",
"+++++++++++++++++   .......   +++++  ........  +++++++++++++++++",
"+++++++++++++++++          ++++++++++          +++++++++++++++++",
"+++++++++++++++++          ++++++++++          +++++++++++++++++",
"+++++++++++++++++          ++++++++++          +++++++++++++++++",
"++++++++++++++++++++++++++++++++++++++++++++++++++++++++++++++++",
"++++++++++++++++++++++++++++++++++++++++++++++++++++++++++++++++",
"++++++++++++++++++++++++++++++++++++++++++++++++++++++++++++++++",
"++++++++++++++++++++++++++++++++++++++++++++++++++++++++++++++++",
"++++++++++++++++++++++++++++++++++++++++++++++++++++++++++++++++",
"++++++++++++++++++++++++++++++++++++++++++++++++++++++++++++++++",
"++++++++++++++++++++++++++++++++++++++++++++++++++++++++++++++++",
"++++++++++++++++++++++++++++++++++++++++++++++++++++++++++++++++",
"++++++++++++++++++++++++++++++++++++++++++++++++++++++++++++++++",
"++++++++++++++++++++++++++++++++++++++++++++++++++++++++++++++++",
"++++++++++++++++++++++++++++++++++++++++++++++++++++++++++++++++",
"++++++++++++++++++++++++++++++++++++++++++++++++++++++++++++++++",
"++++++++++++++++++++++++++++++++++++++++++++++++++++++++++++++++",
"++++++++++++++++++++++++++++++++++++++++++++++++++++++++++++++++"
};
