/* XPM */
static char *result[] = {
/* columns rows colors chars-per-pixel */
"33 64 24 1 ",
"  c #420704",
". c #641B14",
"X c #6D2312",
"o c #6F2412",
"O c #742813",
"+ c #762913",
"@ c #7C2D14",
"# c #925100",
"$ c #9E5F00",
"% c #9C4919",
"& c #A46500",
"* c #A56500",
"= c #AB6600",
"- c #A96900",
"; c #A45B20",
": c #CE6911",
"> c #C06D22",
", c #C36F23",
"< c #CF7924",
"1 c #F1B532",
"2 c #F19C61",
"3 c #FFEA88",
"4 c #FFFEF2",
"5 c None",
/* pixels */
"555555555555.....5555555555555555",
"555555555555.....5555555555555555",
"555555555555..111..55555555555555",
"555555555555..111..55555555555555",
"555555555555..###@@@@555555555555",
"555555555555..###@@@@555555555555",
"5555555555  --1111111@@5555555555",
"5555555555  --1111111@@5555555555",
"55555555  ##$$111333311@@....5555",
"55555555  ##$$111333311@@....5555",
"555555....&&##111334433##11..5555",
"555555....&&##111334433##11..5555",
"5555..11..::##===113333@@..555555",
"5555..11..::##===113333@@..555555",
"5555....  ::**###--1111..55555555",
"5555....  ::**###--1111..55555555",
"5555....  ::**###--1111..55555555",
"5555555555..:::::--##..5555555555",
"5555555555..:::::--##..5555555555",
"555555555555  #####  555555555555",
"555555555555  #####  555555555555",
"555555555555  ...11  555555555555",
"555555555555  ...11  555555555555",
"5555555555  ..%%%..@@  5555555555",
"5555555555  ..%%%..@@  5555555555",
"5555555555  @@%%%;;;;..5555555555",
"5555555555  @@%%%;;;;..5555555555",
"55555555  ..@@;;;<<>>;;..55555555",
"55555555  ..@@;;;<<>>;;..55555555",
"55555555  @@@@;;;<<;;,,..55555555",
"55555555  @@@@;;;<<;;,,..55555555",
"555555  ..OO@@;;;<<;;>>;;..555555",
"555555  ..OO@@;;;<<;;>>;;..555555",
"555555  ++..@@;;;<<;;;;>>..555555",
"555555  ++..@@;;;<<;;;;>>..555555",
"5555  ..OO..@@;;;<<;;;;>>;;..5555",
"5555  ..OO..@@;;;<<;;;;>>;;..5555",
"55  --OO....@@;;;<<;;;;;;>>33..55",
"55  --OO....@@;;;<<;;;;;;>>33..55",
"55    22....@@;;;<<;;;;;;33;;..55",
"55    22....@@;;;<<;;;;;;33;;..55",
"55  ..  --..@@;;;<<;;;;11%%<<..55",
"55  ..  --..@@;;;<<;;;;11%%<<..55",
"  ..@@..  --@@;;;<<;;11%%;;>>;;..",
"  ..@@..  --@@;;;<<;;11%%;;>>;;..",
"  @@@@....  11;;;<<33%%;;;;;;>>..",
"  @@@@....  11;;;<<33%%;;;;;;>>..",
"  ..OO......  11133%%;;;;;;;;<<  ",
"  ..OO......  11133%%;;;;;;;;<<  ",
"  ..OO......  11133%%;;;;;;;;<<  ",
"55  ..XX....@@%%%;;;;;;;;;;<<  55",
"55  ..XX....@@%%%;;;;;;;;;;<<  55",
"5555  ..oo..@@%%%<<;;;;;;<<  5555",
"5555  ..oo..@@%%%<<;;;;;;<<  5555",
"555555  ..OO@@;;;<<;;;;<<  555555",
"555555  ..OO@@;;;<<;;;;<<  555555",
"55555555  ..@@;;;<<;;<<  55555555",
"55555555  ..@@;;;<<;;<<  55555555",
"5555555555  ..;;;<<<<  5555555555",
"5555555555  ..;;;<<<<  5555555555",
"555555555555  @@@;;  555555555555",
"555555555555  @@@;;  555555555555",
"55555555555555     55555555555555",
"55555555555555     55555555555555"
};
